<?xml version="1.0" encoding="utf-8"?><svg xmlns="http://www.w3.org/2000/svg" version="1.1" viewBox="0 0 680 910"><g stroke="#000" stroke-linecap="round"><path d="m133.0167 206.2171c0 8.3633 45.3793 25.37 206.9831 25.37s206.9831-17.0067 206.9831-25.37-45.3793-25.37-206.9831-25.37-206.9831 17.0067-206.9831 25.37z" fill="#eac102" stroke-linejoin="round"/><g fill="none"><path d="m158.8005 195.1073v22.2183" stroke-width="6.7"/><path d="m166.5984 193.3035v25.8259" stroke-width="6.4"/><path d="m174.3962 192.12v28.193" stroke-width="6.1"/><path d="m182.194 190.6554v31.1234" stroke-width="5.8"/><path d="m189.993 189.3592v33.7158" stroke-width="5.5"/><path d="m197.7908 188.2314v35.9702" stroke-width="5.1"/><path d="m205.5886 187.1048v38.2234" stroke-width="4.8"/><path d="m213.3864 186.1465v40.1398" stroke-width="4.5"/><path d="m221.1854 185.5263v41.3803" stroke-width="4.2"/><path d="m228.9832 184.7946v42.8449" stroke-width="3.9"/><path d="m236.781 183.6668v45.0993" stroke-width="3.6"/><path d="m244.58 183.0466v46.3398" stroke-width="3.3"/><path d="m252.3778 182.7655v46.9031" stroke-width="3"/><path d="m260.1756 182.0883v48.255" stroke-width="2.7"/><path d="m267.9734 181.525v49.3828" stroke-width="2.4"/><path d="m275.7724 181.1871v50.0588" stroke-width="2.1"/><path d="m283.5702 180.6807v51.0727" stroke-width="1.8"/><path d="m291.368 180.3415v51.7499" stroke-width="1.5"/><path d="m299.1658 179.3276v53.779" stroke-width="1.2"/><path d="m306.9649 179.3276v53.779" stroke-width=".9"/><path d="m314.7627 179.3276v53.779" stroke-width=".6"/><path d="m322.5605 179.3276v53.779" stroke-width=".3"/><path d="m143.2038 200.4605v11.5108" stroke-width="7.3"/><path d="m151.0016 197.587v17.2601" stroke-width="7"/><path d="m521.2002 195.1073v22.2183" stroke-width="6.7"/><path d="m513.4024 193.3035v25.8259" stroke-width="6.4"/><path d="m505.6034 192.12v28.193" stroke-width="6.1"/><path d="m497.8056 190.6554v31.1234" stroke-width="5.8"/><path d="m490.0078 189.3592v33.7158" stroke-width="5.5"/><path d="m482.21 188.2314v35.9702" stroke-width="5.1"/><path d="m474.411 187.1048v38.2234" stroke-width="4.8"/><path d="m466.6132 186.1465v40.1398" stroke-width="4.5"/><path d="m458.8154 185.5263v41.3803" stroke-width="4.2"/><path d="m451.0164 184.7946v42.8449" stroke-width="3.9"/><path d="m443.2186 183.6668v45.0993" stroke-width="3.6"/><path d="m435.4208 183.0466v46.3398" stroke-width="3.3"/><path d="m427.623 182.7655v46.9031" stroke-width="3"/><path d="m419.824 182.0883v48.255" stroke-width="2.7"/><path d="m412.0261 181.525v49.3828" stroke-width="2.4"/><path d="m404.2284 181.1871v50.0588" stroke-width="2.1"/><path d="m396.4306 180.6807v51.0727" stroke-width="1.8"/><path d="m388.6316 180.3415v51.7499" stroke-width="1.5"/><path d="m380.8338 179.3276v53.779" stroke-width="1.2"/><path d="m373.036 179.3276v53.779" stroke-width=".9"/><path d="m365.2382 179.3276v53.779" stroke-width=".6"/><path d="m357.4392 179.3276v53.779" stroke-width=".3"/><path d="m536.7958 200.4605v11.5108" stroke-width="7.3"/><path d="m528.9979 197.587v17.2601" stroke-width="7"/></g><g stroke-linejoin="round"><path d="m607.121 100.7603c-10.8779 18.3949-29.5358 39.6609-47.7585 52.8569l-15.0667-7.1945c28.3492-11.0209 46.275-28.1501 62.8252-45.6624z" fill="#eac102"/><path d="m72.8781 100.7603c10.8788 18.3949 29.536 39.6609 47.7593 52.8569l15.0664-7.1945c-28.3484-11.0197-46.2743-28.1489-62.8254-45.6612z" fill="#eac102"/><path d="m245.7675 62.4453c-4.5063 6.3943-10.5058 11.9557-19.1766 13.4313 3.6239 3.042 4.6493 6.775 5.0372 11.3774-13.1262-4.4047-19.5645-.6353-26.7069-5.987l-8.1012-6.0718-3.1282-15.0414 5.2941-7.4285c4.4966-6.3083 13.4765-4.7345 23.1327-11.198 1.5017 4.4872 2.0398 8.2712-.1927 11.9206 8.9059-.3504 16.9223 3.79 23.8417 8.9974z" fill="#eac102"/><path d="m434.2321 62.4453c4.5075 6.3943 10.5058 11.9557 19.1778 13.4313-3.6252 3.042-4.6493 6.775-5.0384 11.3774 13.1262-4.4047 19.5645-.6353 26.7069-5.987l8.1024-6.0718 3.127-15.0414-5.2941-7.4285c-4.4954-6.3083-13.4765-4.7345-23.1314-11.198-1.5029 4.4872-2.041 8.2712.1915 11.9206-8.9059-.3504-16.9223 3.79-23.8417 8.9974z" fill="#eac102"/><path d="m345.9981 64.4906c-.0364 2.8577 0 13.2361 0 19.8535 0 32.5306 57.2608 47.2034 66.2588.2243.5248-2.7425 3.2082-4.5054 5.985-4.1683 2.7768.3383 4.8966 2.8189 4.7705 5.6075-1.9926 44.0765 51.1098 37.9077 59.1552 2.163l4.7075-20.9143c.6787-3.0153 4.1912-5.0328 7.2128-4.3562 3.0216.6765 5.3099 3.9937 4.6311 7.009l-4.7063 20.9143c-7.9194 35.1809 24.9119 47.4737 56.6754 4.0713 1.732-2.3655 5.2699-3.2105 7.7545-1.6513 2.4859 1.558 2.9331 5.0728 1.6956 7.7292-24.7398 53.1091 10.9288 25.3821 38.9156-8.3682 2.0701-2.4976 6.1753-3.0711 8.6926-1.0233 2.5186 2.0466 2.7501 6.1446.7212 8.6761-52.2382 65.2176-71.3142 41.8226-68.1799 22.9985-21.997 17.7244-49.0615 16.1556-57.4741-10.268-19.5536 22.0189-54.9204 22.7803-67.7399-4.4326-21.1498 28.024-60.1199 20.3991-75.0739-3.145-14.9551 23.5441-53.9241 31.169-75.0739 3.145-12.8196 27.2129-48.1864 26.4515-67.7399 4.4326-8.4139 26.4236-35.4771 27.9925-57.4753 10.268 3.1355 18.8241-15.9409 42.2191-68.1795-22.9985-2.028-2.5316-1.797-6.6296.7213-8.6761 2.5181-2.0478 6.6227-1.4743 8.6934 1.0233 27.986 33.7503 63.6554 61.4772 38.915 8.3682-1.2374-2.6564-.7897-6.1713 1.6954-7.7292 2.4853-1.5592 6.023-.7141 7.7542 1.6513 31.7647 43.4024 64.5947 31.1096 56.6766-4.0713l-4.7075-20.9143c-.6787-3.0153 1.6108-6.3325 4.6324-7.009 3.0204-.6765 6.534 1.3409 7.2128 4.3562l4.7063 20.9143c8.0454 35.7447 61.149 41.9135 59.1564-2.163-.1261-2.7886 1.9938-5.2692 4.7705-5.6075 2.7768-.3371 5.4602 1.4258 5.985 4.1683 8.998 46.9791 66.2588 32.3063 66.2588-.2243 0-6.6174.0364-16.9958 0-19.8535-.0364-3.1741 2.818-6.1385 5.9983-6.1385s6.0371 2.9644 5.9983 6.1385z" fill="#eac102"/><path d="m271.0956 81.6949c0 5.2111-4.2244 9.4355-9.4355 9.4355s-9.4355-4.2244-9.4355-9.4355 4.2244-9.4355 9.4355-9.4355 9.4355 4.2244 9.4355 9.4355z" fill="#e5e5e5" fill-rule="evenodd"/><path d="m130.7272 74.3937c6.9194 5.2074 14.9285 9.3138 23.8344 8.9647-2.2325 3.6494-1.6944 7.4334-.1915 11.9193 11.9845-7.1582 18.6748-4.8642 23.1387-11.164l5.2868-7.4625-3.1282-15.0413-8.0939-6.0379c-6.9703-5.1989-14.017-1.7192-26.7142-6.0197.3891 4.6012 1.4132 8.3354 5.0384 11.3762-8.672 1.4755-14.6643 7.0709-19.1706 13.4652z" fill="#eac102"/><path d="m178.0179 69.7271c-18.2506-.2182-23.4102 2.123-39.4828 3.8858" fill="none"/><path d="m177.4519 63.8311c-11.5882-7.2091-19.7366-4.1829-27.1263-9.332" fill="none"/><path d="m179.6008 75.959c-7.9024 7.6977-13.9504 4.9952-20.8068 11.5083" fill="none"/><path d="m173.3673 7.5042c-2.3695 8.0893-5.9971 15.4027-2.4798 24.6486-3.7839-2.8019-8.5023-3.807-12.6353-2.7716 8.1933 12.5413 6.408 19.8401 13.5662 25.7762l7.8248 6.4901 14.0873-1.4634 4.819-7.8032c4.076-6.598-.1091-14.0084 2.5295-27.4469-4.3803-.1528-7.8466.4716-10.3301 3.9246-2.4786-9.3296-9.4101-17.1279-17.3816-21.3545z" fill="#eac102"/><path d="m190.9962 57.3701c3.6967-8.7404.4097-17.1764 5.1366-26.9668" fill="none"/><path d="m181.3193 59.1729c-9.3847-9.4824-8.8441-18.1185-15.7781-25.1033" fill="none"/><path d="m185.9615 57.4283c-5.951-15.8416-4.5184-27.9343-9.9907-41.8517" fill="none"/><path d="m195.2856 62.2392c7.86-8.6543 14.697-6.2537 22.5909-13.4361" fill="none"/><path d="m197.2163 72.4951c11.2839 4.4811 15.0085 1.758 27.0839 8.8737" fill="none"/><path d="m198.575 67.592c17.0726-4.6691 24.112-1.4634 39.6925-4.2896" fill="none"/><path d="m200.0034 68.3837c0 6.7116-5.4409 12.1525-12.1525 12.1525-6.7117 0-12.1525-5.4409-12.1525-12.1525 0-6.7117 5.4408-12.1525 12.1525-12.1525s12.1525 5.4409 12.1525 12.1525z" fill="#ed1c24" fill-rule="evenodd"/><path d="m61.2691 82.9425c-8.3434-11.8369-15.2624-19.4788-40.7693-21.6745 8.7264-13.1233 26.9-16.9218 38.7205-4.9467 1.1182-3.2772 1.8077-4.3453 4.9332-7.3728 2.7868 8.5464 15.1973 15.0038 10.2736 30.307l-4.8385 15.0389z" fill="#eac102"/><path d="m109.1614 79.1452c-1.8974 6.9945-4.9404 13.4312-10.4926 16.3399 2.963 2.3485 4.3052 5.8124 5.3734 10.2304 0 0-12.7505-1.0257-18.302.2425-6.3394 1.4489-11.1924-1.2767-12.2333-2.2988l-5.983-11.809c4.6018-8.2105 5.5077-12.7196 8.9558-17.1886 3.4426-4.4617 9.0727-8.3815 13.1615-11.8854 1.7943 4.1162 2.8197 7.7122 1.964 11.6478 5.9065-1.8526 12.0054.822 17.5564 4.7212z" fill="#eac102"/><path d="m66.1829 89.6836c-.7433-6.2585 1.411-11.9048 1.0269-16.9291-.703-9.1926-3.7144-12.2213-3.3163-17.0358" fill="none"/><path d="m70.6653 97.237c9.9213-8.025 19.0042-9.4896 30.9474-16.2683" fill="none"/><path d="m68.9492 92.7923c4.3394-7.3 13.2693-11.3689 18.089-22.7245" fill="none"/><path d="m72.0528 101.3653c8.5345 1.1676 13.71-3.7804 23.9201-.0728" fill="none"/><path d="m73.5064 103.6592c-1.6103.7966-3.4234 1.2452-5.3417 1.2452-6.6603 0-12.0596-5.4014-12.0596-12.0636 0-4.098 2.0415-7.7183 5.1636-9.8982 6.5373 4.315 11.3072 13.0833 12.2378 20.7167z" fill="#ed1c24" fill-rule="evenodd"/><path d="m378.7021 51.0667c3.1476-3.3669 3.4094-7.1485 2.8107-11.7217-14.577 6.0536-20.6456 2.8201-26.7833 8.6301l-7.1946 6.809v15.102l7.1946 6.8102c6.1377 5.8087 12.2063 2.5752 26.7833 8.63.5987-4.5733.3369-8.356-2.8107-11.7229 9.4453-.5662 16.972-5.4305 23.1121-11.2683-6.1401-5.8366-13.6668-10.7021-23.1121-11.2683z" fill="#eac102"/><path d="m351.0462 62.3349h42.0414" fill="none"/><path d="m349.2221 67.1519c12.3263 7.6431 17.3962 5.3904 26.5057 11.7605" fill="none"/><path d="m349.2221 57.518c12.3263-7.6431 17.3962-5.3905 26.5057-11.7605" fill="none"/><path d="m301.2963 51.0667c-3.1476-3.3669-3.4082-7.1485-2.8107-11.7217 14.5782 6.0536 20.6468 2.8201 26.7845 8.6301l7.1946 6.809v15.102l-7.1946 6.8102c-6.1377 5.8087-12.2063 2.5752-26.7845 8.63-.5975-4.5733-.337-8.356 2.8107-11.7229-9.4453-.5662-16.972-5.4305-23.1108-11.2683 6.1389-5.8366 13.6656-10.7021 23.1108-11.2683z" fill="#eac102"/><path d="m328.9534 62.3349h-42.0414" fill="none"/><path d="m330.7775 67.1519c-12.3263 7.6431-17.3962 5.3904-26.5069 11.7605" fill="none"/><path d="m330.7775 57.518c-12.3263-7.6431-17.3962-5.3905-26.5069-11.7605" fill="none"/><path d="m351.2643 23.6198c3.3658-3.1487 7.1461-3.4093 11.7178-2.8116-6.0516 14.5831-2.8192 20.6524-8.6272 26.7922l-6.8067 7.197h-15.097l-6.8079-7.197c-5.8068-6.1397-2.5743-12.2091-8.6272-26.7922 4.5717-.5977 8.3532-.3371 11.719 2.8116.566-9.4484 5.4287-16.9776 11.2645-23.1197 5.8347 6.1421 10.6985 13.6713 11.2645 23.1197z" fill="#eac102"/><path d="m339.9998 51.2861v-42.0554" fill="none"/><path d="m335.1844 53.1096c-7.6418-12.3304-5.3887-17.402-11.7566-26.5145" fill="none"/><path d="m344.8152 53.1096c7.6406-12.3304 5.3887-17.402 11.7566-26.5145" fill="none"/><path d="m549.2736 74.3937c-6.9194 5.2074-14.9297 9.3138-23.8356 8.9647 2.2338 3.6494 1.6944 7.4334.1927 11.9193-11.9857-7.1582-18.6761-4.8642-23.1399-11.164l-5.2869-7.4625 3.1282-15.0413 8.0951-6.0379c6.9703-5.1989 14.0158-1.7192 26.713-6.0197-.3878 4.6012-1.4132 8.3354-5.0372 11.3762 8.672 1.4755 14.663 7.0709 19.1693 13.4652z" fill="#eac102"/><path d="m501.9817 69.7271c18.2506-.2182 23.4102 2.123 39.4828 3.8858" fill="none"/><path d="m502.5478 63.8311c11.5882-7.2091 19.7366-4.1829 27.1263-9.332" fill="none"/><path d="m500.3988 75.959c7.9024 7.6977 13.9504 4.9952 20.8068 11.5083" fill="none"/><path d="m506.6323 7.5042c2.3707 8.0893 5.9971 15.4027 2.4798 24.6486 3.7839-2.8019 8.5023-3.807 12.6353-2.7716-8.1933 12.5413-6.408 19.8401-13.5662 25.7762l-7.8248 6.4901-14.0861-1.4634-4.8202-7.8032c-4.076-6.598.1091-14.0084-2.5295-27.4469 4.3803-.1528 7.8466.4716 10.3301 3.9246 2.4786-9.3296 9.4102-17.1279 17.3816-21.3545z" fill="#eac102"/><path d="m489.0034 57.3701c-3.6979-8.7404-.4109-17.1764-5.1366-26.9668" fill="none"/><path d="m498.6802 59.1729c9.3847-9.4824 8.8441-18.1185 15.7781-25.1033" fill="none"/><path d="m494.0381 57.4283c5.9522-15.8416 4.5184-27.9343 9.9907-41.8517" fill="none"/><path d="m484.7141 62.2392c-7.8588-8.6543-14.697-6.2537-22.5897-13.4361" fill="none"/><path d="m482.7833 72.4951c-11.2851 4.4811-15.0085 1.758-27.0839 8.8737" fill="none"/><path d="m481.4246 67.592c-17.0726-4.6691-24.112-1.4634-39.6925-4.2896" fill="none"/><path d="m618.731 82.9425c8.3436-11.8369 15.2618-19.4788 40.7688-21.6745-8.7266-13.1233-26.8996-16.9218-38.7205-4.9467-1.1187-3.2772-1.8071-4.3453-4.9329-7.3728-2.7864 8.5464-15.1975 15.0038-10.2731 30.307l4.8384 15.0389z" fill="#eac102"/><path d="m613.8163 89.6836c.7442-6.2585-1.4108-11.9048-1.0266-16.9291.703-9.1926 3.7149-12.2213 3.3161-17.0358" fill="none"/><path d="m570.8379 79.1452c1.898 6.9945 4.9402 13.4312 10.4925 16.3399-2.9622 2.3485-4.3051 5.8124-5.3729 10.2304 0 0 12.7505-1.0257 18.3015.2425 6.3401 1.4489 11.193-1.2767 12.2342-2.2988l5.9825-11.809c-4.6021-8.2105-5.5074-12.7196-8.9556-17.1886-3.4422-4.4617-9.0732-8.3815-13.1614-11.8854-1.795 4.1162-2.8204 7.7122-1.9647 11.6466-5.9062-1.8514-12.0051.8232-17.5561 4.7224z" fill="#eac102"/><path d="m609.3342 97.237c-9.9216-8.025-19.0045-9.4896-30.9478-16.2683" fill="none"/><path d="m611.0504 92.7923c-4.339-7.3-13.2692-11.3689-18.0894-22.7245" fill="none"/><path d="m607.9464 101.3653c-8.5338 1.1676-13.7092-3.7804-23.9193-.0728" fill="none"/><path d="m606.4932 103.6592c1.6096.7966 3.424 1.2452 5.3414 1.2452 6.6613 0 12.0596-5.4014 12.0596-12.0636 0-4.098-2.041-7.7183-5.1632-9.8982-6.5364 4.315-11.3082 13.0833-12.2378 20.7167z" fill="#ed1c24" fill-rule="evenodd"/><path d="m132.3957 94.9273c0 5.2111-4.2244 9.4355-9.4355 9.4355s-9.4355-4.2244-9.4355-9.4355 4.2244-9.4355 9.4355-9.4355 9.4355 4.2244 9.4355 9.4355z" fill="#e5e5e5" fill-rule="evenodd"/><path d="m502.5285 183.9278c39.8137-5.131 69.0974-13.2288 69.0974-25.7652 0-28.2653-148.8642-33.9673-231.6259-33.9673s-231.626 5.702-231.626 33.9673c0 12.5365 29.2837 20.6343 69.0974 25.7652zm-379.946-25.7652c0 2.7655 49.8578 21.8091 217.4174 21.8091 167.5597 0 217.4174-19.0436 217.4174-21.8091s-49.8578-21.8091-217.4174-21.8091c-167.5597 0-217.4174 19.0436-217.4174 21.8091z" fill="#eac102" fill-rule="evenodd"/><path d="m463.259 183.9242 82.2418 17.9888c3.0749-14.8583 7.883-27.6481 15.6448-41.1509 0-11.432-88.754-25.3688-221.1456-25.3688-132.3928 0-221.1456 13.9368-221.1456 25.3688 7.7608 13.5028 12.5687 26.2927 15.6448 41.1509l82.2406-17.9888z" fill="#eac102"/><path d="m194.4845 154.4962 42.5771-4.0725c4.2724-.4086 8.0393 2.7134 8.449 7.0005.4085 4.2871-2.7016 8.0675-6.9728 8.4761l-42.5771 4.0725c-4.2724.4086-8.0406-2.7134-8.449-7.0005-.4085-4.2871 2.7004-8.0675 6.9728-8.4761z" fill="#008f4c" fill-rule="evenodd"/><path d="m171.9341 166.5168c0 5.2111-4.2244 9.4355-9.4355 9.4355s-9.4355-4.2244-9.4355-9.4355 4.2244-9.4355 9.4355-9.4355 9.4355 4.2244 9.4355 9.4355z" fill="#e5e5e5" fill-rule="evenodd"/><path d="m285.5297 156.2379c0 5.2111-4.2244 9.4355-9.4355 9.4355s-9.4355-4.2244-9.4355-9.4355 4.2244-9.4355 9.4355-9.4355 9.4355 4.2244 9.4355 9.4355z" fill="#e5e5e5" fill-rule="evenodd"/><path d="m120.4783 180.2833 3.1851-10.3917 17.051 2.3327-10.3676 13.8435z" fill="#ed1c24"/><path d="m120.4783 180.2833 20.236-8.059" fill="none"/><path d="m485.5153 154.4962-42.5771-4.0725c-4.2724-.4086-8.0393 2.7134-8.449 7.0005-.4085 4.2871 2.7016 8.0675 6.9728 8.4761l42.5771 4.0725c4.2724.4086 8.0406-2.7134 8.449-7.0005.4085-4.2871-2.7004-8.0675-6.9728-8.4761z" fill="#008f4c" fill-rule="evenodd"/><path d="m559.5214 180.2833-3.1852-10.3917-17.0507 2.3327 10.3676 13.8435z" fill="#ed1c24"/><path d="m559.5214 180.2833-20.2359-8.059" fill="none"/><path d="m316.8842 146.6797-12.0111 8.1051 12.0111 8.1039h46.2326l12.0111-8.1039-12.0111-8.1051z" fill="#ed1c24"/><path d="m316.8842 146.6797 11.1021 7.2539-11.1021 8.955" fill="none"/><path d="m363.1168 146.6797-11.1021 7.2539 11.1021 8.955" fill="none"/><path d="m375.128 154.7848-23.1133-.8511h-24.0283l-23.1133.8511" fill="none"/><path d="m139.5096 206.2171c0-2.6116 46.9501-20.085 200.4903-20.085s200.4915 17.4735 200.4915 20.085-46.9525 20.085-200.4915 20.085c-153.5402 0-200.4903-17.4735-200.4903-20.085zm-13.102 0c0-26.6552 142.6999-31.283 213.5923-31.283 70.8936 0 213.5923 4.6278 213.5923 31.283s-142.6987 31.283-213.5923 31.283c-70.8924 0-213.5923-4.6278-213.5923-31.283z" fill="#eac102" fill-rule="evenodd"/><path d="m408.9042 81.6949c0 5.2111 4.2244 9.4355 9.4355 9.4355s9.4355-4.2244 9.4355-9.4355-4.2244-9.4355-9.4355-9.4355-9.4355 4.2244-9.4355 9.4355z" fill="#e5e5e5" fill-rule="evenodd"/><path d="m547.6042 94.9273c0 5.2111 4.2244 9.4355 9.4355 9.4355s9.4355-4.2244 9.4355-9.4355-4.2244-9.4355-9.4355-9.4355-9.4355 4.2244-9.4355 9.4355z" fill="#e5e5e5" fill-rule="evenodd"/><path d="m508.0657 166.5168c0 5.2111 4.2244 9.4355 9.4355 9.4355s9.4355-4.2244 9.4355-9.4355-4.2244-9.4355-9.4355-9.4355-9.4355 4.2244-9.4355 9.4355z" fill="#e5e5e5" fill-rule="evenodd"/><path d="m394.4701 156.2379c0 5.2111 4.2244 9.4355 9.4355 9.4355s9.4355-4.2244 9.4355-9.4355-4.2244-9.4355-9.4355-9.4355-9.4355 4.2244-9.4355 9.4355z" fill="#e5e5e5" fill-rule="evenodd"/><path d="m352.2434 62.3349c0 6.7619-5.4816 12.2435-12.2435 12.2435s-12.2435-5.4816-12.2435-12.2435 5.4816-12.2435 12.2435-12.2435 12.2435 5.4816 12.2435 12.2435z" fill="#ed1c24" fill-rule="evenodd"/><path d="m479.9963 68.3837c0 6.7116 5.4409 12.1525 12.1525 12.1525 6.7117 0 12.1525-5.4409 12.1525-12.1525 0-6.7117-5.4408-12.1525-12.1525-12.1525s-12.1525 5.4409-12.1525 12.1525z" fill="#ed1c24" fill-rule="evenodd"/></g></g><g stroke="#000" stroke-linecap="round" stroke-linejoin="round"><path d="m51.7103 472.3725 16.7214-24.8649c3.8314-2.1191 12.5233-3.4767 18.865-2.0945 4.9701 1.0832 9.9161 10.1294 7.7761 22.4209-2.4887 14.2946-8.2012 18.5697-13.4164 17.2342-10.6865-2.7367-18.5425-8.8741-29.9461-12.6957z" fill="#e5e5e5"/><path d="m189.4412 794.1831c7.5946 4.8481 19.0754 17.2629 17.0058 20.8953-6.1881 10.8611-18.7777 35.7071-22.6696 45.1088-1.7944-5.1831-13.048-15.6314-19.673-19.8605-6.9451-4.4335-23.283-11.8252-28.3434-10.8901 3.8712-6.9277 22.4259-34.656 26.3025-43.4508 1.7728-4.0218 19.4232 3.1195 27.3776 8.1973z" fill="#e5e5e5"/><path d="m193.9855 812.1539c.0672-.1103.1414-.2071.2375-.306 2.5884-2.6649 8.8201 6.8361 11.8919 3.7185.1395-.1416.2519-.3069.3322-.488" fill="none"/><path d="m162.0637 785.9858c-1.5348 4.0987 10.0806 5.9363 8.3758 9.2372" fill="none"/><path d="m81.6564 485.0682c-4.6679-1.1901-6.4942-7.5319-3.494-18.4243l-13.3018-4.6067" fill="none"/><path d="m628.289 472.3725-16.7214-24.8649c-3.8314-2.1191-12.5233-3.4767-18.865-2.0945-4.9701 1.0832-9.9161 10.1294-7.7761 22.4209 2.4887 14.2946 8.2012 18.5697 13.4164 17.2342 10.6865-2.7367 18.5425-8.8741 29.9461-12.6957z" fill="#e5e5e5"/><path d="m490.5581 794.1831c-7.5946 4.8481-19.0754 17.2629-17.0058 20.8953 6.1881 10.8611 18.7777 35.7071 22.6696 45.1088 1.7944-5.1831 13.048-15.6314 19.673-19.8605 6.9451-4.4335 23.283-11.8252 28.3434-10.8901-3.8712-6.9277-22.4259-34.656-26.3025-43.4508-1.7728-4.0218-19.4232 3.1195-27.3776 8.1973z" fill="#e5e5e5"/><path d="m478.289 821.9884c3.3823-1.8603 9.2757-7.2915 7.7248-9.8345 6.9531 11.5743 12.2748 31.8298 21.3595 45.0998 2.969 4.3367-1.6622 9.1961-6.5061 11.7943-47.9311 25.7095-102.6615 40.452-160.8676 40.452s-112.9364-14.7425-160.8675-40.452c-4.8439-2.5982-9.4751-7.4576-6.5061-11.7943 9.0847-13.27 14.4064-33.5255 21.3595-45.0998-1.5509 2.543 4.3426 7.9742 7.7248 9.8345 41.0285 22.5665 88.1558 35.393 138.2894 35.393s97.2609-12.8265 138.2894-35.393z" fill="#e5e5e5"/><path d="m486.0138 812.1539c-.0672-.1103-.1414-.2071-.2375-.306-2.5884-2.6649-8.8201 6.8361-11.8919 3.7185-.1395-.1416-.2519-.3069-.3322-.488" fill="none"/><path d="m517.9356 785.9858c1.5348 4.0987-10.0806 5.9363-8.3758 9.2372" fill="none"/><path d="m598.3429 485.0682c4.6679-1.1901 6.4942-7.5319 3.494-18.4243l13.3018-4.6067" fill="none"/><path d="m639.052 429.0303c7.5342-2.0499 11.0791 2.5435 13.3347 7.83 17.4433 40.8819 27.1133 85.8842 27.1133 133.1398 0 108.4045-51.3563 204.2574-129.9157 267.098-4.6117 3.689-11.6008 5.5849-13.526.694-5.8903-14.9643-20.3481-30.5489-26.4984-42.569 1.5795 3.0582 9.0318-.015 12.2114-2.6138 64.4639-52.6973 105.6096-132.8526 105.6096-222.6092 0-41.2689-8.5184-80.5333-24.3565-115.9764-2.0662-4.6237-5.5017-9.5483-10.3218-8.6106 19.5175-4.2501 34.0011-13.0232 46.3494-16.3829z" fill="#e5e5e5"/><path d="m40.948 429.0303c-7.5342-2.0499-11.0791 2.5435-13.3347 7.83-17.4433 40.8819-27.1133 85.8842-27.1133 133.1398 0 108.4045 51.3563 204.2574 129.9157 267.098 4.6117 3.689 11.6008 5.5849 13.526.694 5.8903-14.9643 20.3481-30.5489 26.4984-42.569-1.5795 3.0582-9.0318-.015-12.2114-2.6138-64.4639-52.6973-105.6096-132.8526-105.6096-222.6092 0-41.2689 8.5184-80.5333 24.3565-115.9764 2.0662-4.6237 5.5017-9.5483 10.3218-8.6106-19.5175-4.2501-34.0011-13.0232-46.3494-16.3829z" fill="#e5e5e5"/><path d="m49.4593 484.4952c.0475-.559.046-.9747-.0046-1.2469-.0506-.2723-.1495-.5088-.2965-.7095s-.4027-.3993-.7668-.5959c-.3642-.1966-.95-.4331-1.7575-.7095l-15.1849-5.1977c-.7841-.2684-1.3666-.4384-1.7474-.5099s-.6976-.0819-.9503-.0311c-.2527.0507-.4904.1721-.7129.3639-.2226.1918-.4962.5329-.8209 1.0232l-.8602-.2944 2.5057-7.3203.8602.2944c-.0645.7231-.0355 1.2495.0871 1.5791.1225.3296.3726.6113.7501.8451.3776.2338 1.0403.513 1.9883.8375l6.7235 2.3014c1.7672.6049 3.5458 1.2431 5.3359 1.9147s3.0067 1.1566 3.6497 1.4552l.1022-.2984-15.0173-12.9065.691-2.0188 19.8889-.4092.1022-.2984c-.7339-.1859-2.0462-.5729-3.9367-1.1612s-3.8247-1.2209-5.8026-1.8979l-6.425-2.1992c-.7841-.2684-1.3666-.4384-1.7474-.5099s-.6976-.0819-.9503-.0311-.4904.1721-.7129.3639c-.2226.1918-.4962.5329-.8209 1.0232l-.8602-.2944 2.1932-6.4075.8602.2944c-.0611.7897-.0196 1.3465.1245 1.6704s.4138.596.809.8162c.3953.2203 1.0259.4786 1.892.7751l15.1849 5.1977c.8075.2764 1.4056.4484 1.7943.5161.3887.0676.7084.0692.9593.005.2509-.0645.4758-.1869.6748-.3672s.4667-.5136.8031-.9999l.8602.2944-2.1452 6.2671-19.1899.3151 14.7614 12.6228-2.031 5.9335z"/><path d="m29.1978 501.1736c-1.3083-.3259-2.4067-.7269-3.2952-1.2031-.8434-.4523-1.5564-.9932-2.139-1.6227-.5195-.5756-.9206-1.23-1.2033-1.9633s-.4394-1.5754-.4702-2.5264.1032-2.0267.4022-3.227c.3617-1.4524.8339-2.6574 1.4166-3.6149.5827-.9576 1.3276-1.6835 2.2347-2.1778s1.8991-.7667 2.9761-.8172 2.3897.1171 3.9381.5028l11.8471 2.9507c.9362.2332 1.5769.3609 1.9219.3831s.6278.0002.8482-.066.4266-.1901.6184-.3718.439-.5472.7416-1.0965l.8822.2197-1.8834 7.562-.8822-.2197c-.0007-.714-.0731-1.2293-.2174-1.5456-.1443-.3164-.4145-.5749-.8107-.7756s-1.0864-.4236-2.0707-.6687l-12.7473-3.1749c-1.1643-.29-2.1732-.4106-3.0267-.3618s-1.5546.2406-2.1033.5756-.9983.7839-1.3489 1.3467c-.3505.5628-.6394 1.3004-.8666 2.2126-.2093.8402-.2461 1.615-.1105 2.3244s.4505 1.3519.9445 1.9275 1.1597 1.0505 1.9971 1.4248 1.9942.7452 3.4706 1.113l11.2529 2.8027c1.0443.2601 1.7711.3869 2.1807.3806.4095-.006.7454-.1012 1.0078-.2844.2623-.1833.5807-.6171.9551-1.3014l.8822.2197-1.7892 7.1839-.8822-.2197c-.0067-.7411-.0859-1.2675-.2377-1.5794s-.4198-.5667-.804-.7643c-.3842-.1977-1.0684-.4191-2.0527-.6642z"/><path d="m28.7743 513.3718 10.2577-3.4072c1.2396-.4114 2.1308-.7329 2.6736-.9646.5427-.2317.9819-.4815 1.3175-.7494s.6066-.5973.813-.9882l.8956.1564-1.3599 7.7864-.8956-.1564c.066-1.1689-.3275-1.8278-1.1805-1.9767-.3534-.0617-.7638-.0486-1.2312.0393s-1.1405.2749-2.0192.5609l-7.6024 2.4394 5.7319 4.7116c.78.6385 1.4297 1.1067 1.949 1.4046s1.0105.4873 1.4735.5681c.4387.0766.8058.006 1.1013-.2126.2955-.2184.5124-.5792.6505-1.0825l.8956.1564-1.2098 6.9274-.8956-.1564c-.0956-.5316-.2718-1.0144-.5287-1.4485-.257-.4342-.6256-.8941-1.1058-1.3798-.4803-.4857-1.3063-1.2202-2.4782-2.2033l-7.7764-6.5944-5.9221-1.0343c-.6946-.1213-1.2615-.1827-1.7007-.184-.4393-.001-.8017.0609-1.0874.1868s-.5261.3162-.7213.5709-.4119.6689-.6502 1.2426l-.8956-.1564 1.4588-8.3531.8956.1564c.0197.6062.0752 1.0616.1663 1.3664.0912.3047.2529.5653.4851.7816s.5546.4014.9673.5551.9724.2922 1.6791.4157z"/><path d="m23.3104 558.3745c-.7632.4083-1.4302.7501-2.0011 1.0254s-1.2101.5566-1.9178.8437l-.0119.2409c.7567-.0247 2.2574-.007 4.5023.0544 2.2448.0609 4.2691.1358 6.073.2246l3.8918.1916c.8525.0419 1.4776.0479 1.8754.018.3978-.03.7049-.1047.9213-.224.2164-.1194.3951-.2902.5361-.5123.141-.2222.3057-.6135.4943-1.1739l.9081.0447-.3284 6.6716-.9081-.0447c-.1209-.5633-.2375-.9622-.3498-1.1969s-.2638-.4279-.4545-.5797-.4819-.2745-.8736-.3681-1.0385-.1626-1.9404-.207l-20.7747-1.0226.114-2.3165 17.8172-9.4705c1.1065-.5896 1.9135-1.0081 2.4211-1.2555.5076-.2475 1.008-.4767 1.5014-.6878l.0155-.3151c-.9556.0396-2.679.0167-5.1704-.0687-2.4913-.0855-4.9725-.189-7.4434-.3107l-3.7806-.1861c-.8278-.0408-1.4345-.0428-1.8203-.006-.3857.0367-.693.1145-.9218.2333s-.4235.3011-.5842.5471-.3292.6495-.5054 1.2105l-.9081-.0447.333-6.7643.9081.0447c.16.7757.354 1.2993.5822 1.5706.2281.2713.5626.4581 1.0035.5603.4408.1022 1.1184.1758 2.0326.2208l16.0304.7891c.8525.042 1.4748.0416 1.8671-.001.3922-.0426.6999-.1296.9231-.2611.2232-.1314.4054-.3113.5467-.5397s.3062-.6228.4948-1.1832l.9081.0447-.2855 5.8006z"/><path d="m12.9102 578.7801c-.0409-1.4838.166-2.8414.6209-4.0729.4548-1.2314 1.1865-2.2973 2.1949-3.1975s2.3098-1.6105 3.9042-2.1309c1.5943-.5204 3.5105-.8115 5.7486-.8732 2.7574-.076 5.1369.2791 7.1385 1.0653 2.0016.7863 3.5402 1.9472 4.6158 3.483 1.0756 1.5357 1.6419 3.336 1.6989 5.401.0607 2.201-.3736 4.066-1.3028 5.5952-.9292 1.5291-2.3262 2.6999-4.1909 3.5124-1.8647.8124-4.151 1.256-6.859 1.3307-2.8934.0798-5.3475-.2856-7.3621-1.0963-2.0147-.8107-3.5383-1.9906-4.571-3.5399s-1.578-3.375-1.636-5.477zm13.0933-6.4679c-3.7961.1047-6.6681.7377-8.616 1.8989s-2.8925 2.8053-2.8339 4.9321c.0372 1.3478.4984 2.4797 1.3837 3.3958.8853.916 2.1629 1.5861 3.8328 2.0103s3.6115.6057 5.8248.5447c2.6956-.0744 4.923-.4111 6.6822-1.0103s3.0275-1.3859 3.805-2.3602c.7774-.9743 1.1488-2.0921 1.114-3.3533-.0307-1.1129-.3167-2.0609-.858-2.8441-.5414-.7832-1.2984-1.4244-2.2712-1.9235s-2.1426-.8504-3.5094-1.054-2.8849-.2824-4.5541-.2364z"/><path d="m18.9858 622.1055.8157 4.7924c.0893.5243.1945.9582.3156 1.3014.1212.3432.267.629.4376.8572s.3858.4237.6456.5865.5882.3045.9852.4252c.397.1206.8869.2161 1.4697.2863.5829.0702 1.4499.1328 2.6011.1878l.3144 1.8475-7.4155.8857-2.7989-16.4442.8963-.1526c.3238.7228.6264 1.1921.9078 1.4077s.6483.3257 1.1008.3302c.4525.005 1.1299-.07 2.0323-.2236l15.8223-2.693c.8414-.1432 1.449-.278 1.8227-.4043.3737-.1264.6554-.2778.8449-.4544s.3286-.3916.4172-.6451.1644-.6742.2275-1.2621l.8963-.1526 1.3107 7.7008-.8963.1526c-.2377-.5117-.4336-.8704-.5879-1.0763s-.3414-.3654-.5614-.4785-.5375-.172-.9523-.1767c-.4149-.005-1.0613.0677-1.9393.2172z"/><path d="m48.564 647.9339-5.4506 1.3001-.4219-1.7687c.5465-.3211 1.0194-.631 1.4187-.9297.3992-.2987.7249-.5862.9769-.8625s.4388-.5593.5605-.849c.1216-.2897.1754-.6109.1612-.9636s-.0773-.7637-.1892-1.2329l-1.3604-5.7033-9.4573 2.2558.9213 3.8624c.1263.5294.3005.9266.5227 1.1915.2221.2649.5374.4536.9457.566s1.019.167 1.8322.1639l.4047 1.6966-6.9306 1.6531-.4047-1.6966c.6817-.3407 1.1817-.657 1.4999-.9491s.5218-.5982.6108-.9182c.089-.3201.066-.7629-.0689-1.3284l-.9213-3.8624-10.4139 2.484 1.3389 5.613c.1406.5896.3058 1.0557.4957 1.3983.1898.3426.4396.6168.7494.8227s.6876.3637 1.1335.4736c.4458.1098.8988.183 1.359.2195.4601.0365 1.128.0775 2.0036.123l.4262 1.7868-6.4168 1.1682-3.9865-16.7128.8844-.211c.3705.7001.7031 1.1485.998 1.3452s.6683.2825 1.1201.2574 1.1229-.1439 2.0133-.3562l15.6118-3.7239c.8302-.198 1.4276-.3723 1.7923-.5229.3646-.1506.6358-.3202.8133-.5088s.3022-.4123.3741-.671c.0718-.2588.1199-.6835.1443-1.2743l.8844-.211z"/><path d="m30.3417 660.329c-.7842.4059-1.5805.7251-2.3889.9577-.8321.2394-1.634.3157-2.4055.2288-.7716-.0869-1.5889-.3441-2.452-.7715s-1.8621-1.0699-2.997-1.9276l.8106-1.2759c.745.4421 1.3857.734 1.9221.8757.5363.1417 1.1129.1882 1.7295.1395.6167-.0487 1.3649-.1997 2.2445-.4528.9034-.26 1.783-.5581 2.6388-.8944z"/><path d="m65.2433 696.7952c-.3336-.4511-.6094-.7621-.8272-.933-.2179-.171-.4483-.2832-.6912-.3367-.243-.0535-.5661-.0338-.9693.0592-.4033.093-.9993.3025-1.7881.6284l-14.8333 6.1293c-.766.3165-1.3155.5737-1.6487.7716s-.5778.3994-.734.6044c-.1562.2051-.2545.4531-.2948.7442-.0404.291-.0205.7278.0597 1.3104l-.8403.3472-2.9548-7.1509.8403-.3472c.4293.5855.7988.9615 1.1085 1.128s.6835.2128 1.1214.1389 1.1199-.3022 2.0459-.6848l6.5678-2.7139c1.7262-.7133 3.4831-1.4092 5.2707-2.0876 1.7875-.6784 3.0213-1.118 3.7013-1.3186l-.1205-.2915-19.8.2314-.8149-1.9721 14.6607-13.4462-.1205-.2915c-.6738.3453-1.9146.9216-3.7225 1.7289s-3.6779 1.6101-5.6099 2.4085l-6.2763 2.5935c-.766.3165-1.3155.5737-1.6487.7716-.3331.1979-.5778.3994-.734.6044-.1562.2051-.2544.4531-.2948.7442-.0403.291-.0205.7279.0597 1.3104l-.8403.3472-2.5864-6.2592.8403-.3472c.4758.6332.8748 1.0238 1.1969 1.1718s.7043.1741 1.1466.0783 1.0864-.3184 1.9324-.668l14.8333-6.1294c.7888-.326 1.3515-.5919 1.688-.7979s.5776-.416.7234-.6302c.1457-.2141.2337-.4546.264-.7214s.0111-.6939-.0576-1.2812l.8403-.3472 2.5297 6.122-14.1982 12.9137 19.4205-.2754 2.3951 5.7961z"/><path d="m61.0444 722.7094c-1.1978.619-2.2876 1.043-3.2693 1.2719-.9321.2171-1.8247.2816-2.6779.1935-.7702-.0893-1.5035-.316-2.1999-.6802-.6964-.3641-1.3702-.8932-2.0212-1.5871s-1.2605-1.5903-1.8284-2.6892c-.6872-1.3297-1.1281-2.5465-1.3226-3.6503-.1946-1.1039-.1144-2.1409.2406-3.1111.3549-.9702.9202-1.8297 1.6958-2.5786s1.8722-1.4897 3.2898-2.2223l10.8461-5.6054c.8571-.443 1.4226-.77 1.6964-.9812.2738-.2111.4716-.4143.5935-.6096.1218-.1953.1949-.4244.219-.6876.0241-.2631-.0315-.7008-.1669-1.3131l.8077-.4174 3.5779 6.9231-.8077.4174c-.4719-.5359-.8665-.875-1.1837-1.0174-.3173-.1424-.6909-.1581-1.1209-.0473-.4301.1109-1.0956.3991-1.9967.8648l-11.6703 6.0313c-1.0659.5509-1.9033 1.1264-2.5122 1.7265s-1.0088 1.2071-1.1997 1.821c-.191.6139-.2323 1.2479-.124 1.9021.1083.6541.3783 1.3988.8099 2.234.3975.7692.8814 1.3755 1.4517 1.8188.5702.4433 1.2309.718 1.9819.8241.7511.1061 1.5646.0233 2.4406-.2484s1.9898-.7569 3.3415-1.4554l10.3022-5.3243c.956-.4941 1.5857-.8787 1.8891-1.1539.3033-.2751.4931-.5681.5692-.879.076-.3108.0288-.8469-.1418-1.608l.8077-.4174 3.399 6.5769-.8077.4174c-.4943-.5522-.9013-.8953-1.2212-1.0293-.3199-.1341-.6894-.1485-1.1084-.0433-.4191.1052-1.0792.3906-1.9802.8563z"/><path d="m68.7778 732.1643 5.4643-9.3258c.6606-1.1267 1.1185-1.9561 1.3738-2.4882.2552-.5321.4206-1.0095.4963-1.4322.0756-.4227.0621-.849-.0405-1.279l.7764-.473 4.1125 6.7502-.7764.473c-.7212-.9222-1.4515-1.158-2.1909-.7075-.3064.1867-.6062.4671-.8996.8414s-.6761.9587-1.148 1.7532l-4.1064 6.8472 7.416-.238c1.0074-.0344 1.8046-.1109 2.3914-.2294s1.0809-.3001 1.4824-.5446c.3803-.2317.6095-.5271.6877-.8861.0782-.3591.0032-.7733-.2248-1.2427l.7764-.473 3.6588 6.0054-.7764.473c-.4224-.3366-.8732-.5833-1.3527-.7402s-1.0599-.2596-1.7411-.308c-.6813-.0484-1.7867-.0558-3.316-.0221l-10.1945.1709-5.1339 3.1279c-.6021.3668-1.0688.6946-1.3999.9832s-.5625.5745-.6943.8575c-.1317.283-.187.5847-.1657.9049s.1315.7745.3306 1.3629l-.7764.473-4.4118-7.2414.7764-.473c.4146.4427.7566.7485 1.0261.9175.2695.1689.5629.2582.8801.2677.3172.01.6816-.064 1.0932-.2206s.9237-.4215 1.5364-.7948z"/><path d="m82.0727 767.541 2.9824 3.839c.3263.42.6239.7527.8928.9981.2689.2453.5324.4283.7906.5489.2581.1206.5402.1912.8461.212s.6623-.009 1.0692-.0905c.4069-.0811.8838-.2284 1.4307-.4418s1.3407-.5677 2.3814-1.0629l1.1497 1.4799-6.118 4.283-10.2334-13.1727.718-.5578c.6268.4842 1.1151.7549 1.465.8121.3498.0572.7253-.0191 1.1263-.2288s.9629-.5953 1.6858-1.1569l12.6746-9.8464c.674-.5236 1.1459-.9294 1.4157-1.2173.2697-.2879.4465-.5544.5302-.7996.0837-.2451.1047-.5003.0631-.7656s-.1735-.6719-.3956-1.2199l.718-.5578 4.7923 6.1688-.718.5578c-.4512-.3387-.7933-.5624-1.0265-.6711-.2332-.1086-.4735-.1608-.7208-.1566-.2474.004-.555.1022-.9229.294s-.9035.5609-1.6068 1.1073z"/><path d="m120.3501 776.4267-4.201 3.7083-1.2034-1.3632c.3316-.5402.6035-1.036.8157-1.4872.2121-.4513.3645-.858.4572-1.2204.0927-.3623.1246-.6999.096-1.0128-.0287-.3129-.1322-.6217-.3104-.9264s-.427-.6379-.7462-.9995l-3.8802-4.3957-7.2891 6.4342 2.6277 2.9768c.3602.408.7006.6768 1.0211.8063.3206.1295.6875.148 1.1008.0554s.9781-.3313 1.6944-.7161l1.1542 1.3076-5.3416 4.7152-1.1542-1.3076c.4418-.621.7346-1.1352.8783-1.5425s.1796-.7732.1078-1.0975c-.0718-.3244-.3001-.7045-.6849-1.1403l-2.6277-2.9768-8.0263 7.085 3.8188 4.3262c.4011.4544.7659.7882 1.0944 1.0015s.6778.338 1.0481.3742c.3702.0362.7779-.002 1.2231-.1144.4452-.1125.8795-.2607 1.3028-.4447s1.0322-.4615 1.8265-.8327l1.2156 1.3771-5.1159 4.0457-11.3704-12.8811.6816-.6017c.6559.444 1.1602.6835 1.513.7187.3527.0351.7226-.0645 1.1097-.299.3871-.2344.9237-.6545 1.61-1.2603l12.0325-10.6214c.6399-.5648 1.0854-.9994 1.3366-1.3036s.4108-.5813.479-.8312c.0681-.2499.0731-.5059.015-.7681-.0582-.2621-.2153-.6597-.4713-1.1927l.6816-.6017z"/><path d="m113.3649 805.3306.6397-.6461c.5265.3473.9497.5748 1.2695.6826s.626.1194.9186.0348.5956-.285.9089-.6015c.2959-.2989.5806-.6567.8541-1.0735s.5575-.9059.8521-1.4671l1.1963-2.1839-6.1441-6.0838-1.7277.8482c-.8726.4242-1.5094.7684-1.9105 1.0328s-.7365.5328-1.0063.8053c-.5222.5274-.7711 1.0469-.7467 1.5584.0244.5116.2743 1.0811.7497 1.7085l-.6397.6461-5.6299-5.5746.6397-.6461c.5706.4083 1.2819.5469 2.1341.4159s1.9022-.4839 3.1502-1.0586l19.9502-9.1515 2.0832 2.0627-10.0738 19.1398c-.4679.8945-.799 1.6024-.9932 2.1238-.1943.5214-.2772.9963-.2488 1.4248.0283.4284.1924.8869.4922 1.3752l-.6397.6461zm1.9869-12.133 5.5112 5.4571 5.9155-10.9847z"/><path d="m126.8061 815.4499 3.6682 3.1901c.4014.349.7577.6179 1.0689.8067.3113.1887.6052.3173.8818.3857s.5669.0832.8711.0445c.3042-.0388.648-.1373 1.0316-.2955.3835-.1583.823-.395 1.3183-.7101s1.2057-.8162 2.131-1.5032l1.4141 1.2298-5.1747 5.3848-12.5868-10.9461.5966-.686c.7086.3539 1.24.5251 1.5943.5136.3543-.0116.7079-.159 1.0608-.4422.3529-.2833.8297-.7703 1.4304-1.461l10.5322-12.1107c.5601-.644.9446-1.1333 1.1537-1.468.209-.3346.3309-.6302.3656-.887.0347-.2567.006-.5111-.0861-.7634-.0921-.2522-.3001-.6257-.6239-1.1205l.5966-.686 5.8944 5.1261-.5966.686c-.5081-.2451-.8871-.3985-1.1368-.46-.2498-.0615-.4957-.0663-.7375-.0143-.2419.052-.5248.2076-.8486.4669-.3239.2593-.7781.725-1.3625 1.397z"/><path d="m254.9727 860.7021c-.5591-.0467-.9748-.0446-1.2469.006-.2722.051-.5086.1502-.709.2975-.2005.1473-.3988.4032-.5948.7676-.1961.3645-.4318.9506-.707 1.7585l-5.1767 15.192c-.2673.7845-.4365 1.3672-.5075 1.7481s-.081.6977-.0298.9504c.0511.2526.1727.4901.3649.7124.1921.2223.5336.4955 1.0243.8195l-.2933.8606-7.3238-2.4956.2933-.8606c.7232.0635 1.2496.0337 1.579-.0892.3294-.123.6107-.3734.8441-.7513.2333-.3779.5115-1.041.8347-1.9894l2.2921-6.7266c.6024-1.768 1.2382-3.5475 1.9073-5.3386.6691-1.791 1.1525-3.0083 1.4502-3.6518l-.2986-.1017-12.8858 15.0351-2.0198-.6882-.4367-19.8883-.2986-.1017c-.1848.7342-.5701 2.047-1.1558 3.9383-.5857 1.8914-1.2157 3.8264-1.8899 5.8052l-2.1904 6.4281c-.2673.7845-.4365 1.3672-.5075 1.7481s-.0809.6977-.0298.9504.1728.4901.3649.7124.5336.4955 1.0243.8195l-.2933.8606-6.4105-2.1844.2933-.8606c.7898.06 1.3465.0178 1.6702-.1268.3237-.1445.5954-.4146.8151-.8102s.4772-1.0266.7725-1.893l5.1767-15.192c.2753-.8079.4465-1.4062.5136-1.795s.0683-.7085.003-.9593c-.0648-.2508-.1875-.4755-.3681-.6743-.1806-.1987-.5142-.466-1.001-.8017l.2932-.8606 6.27 2.1365.3416 19.1895 12.6024-14.7788 5.9363 2.0228z"/><path d="m271.68 880.9517c-.3246 1.3087-.7246 2.4074-1.2 3.2963-.4515.8439-.9917 1.5574-1.6206 2.1406-.5751.5201-1.2291.9218-1.9621 1.2052s-1.575.4409-2.526.4727-2.0268-.1013-3.2274-.3991c-1.4527-.3603-2.6581-.8314-3.6163-1.4131-.9581-.5818-1.6848-1.3259-2.18-2.2326-.4952-.9066-.7685-1.8984-.82-2.9754s.1148-2.3898.499-3.9386l2.9393-11.8499c.2323-.9364.3594-1.5772.3812-1.9223.0219-.345-.0004-.6278-.0668-.8482s-.1906-.4264-.3724-.6181c-.1819-.1916-.5476-.4385-1.0972-.7405l.2189-.8824 7.5638 1.8761-.2189.8824c-.7141.001-1.2292.0743-1.5454.2189-.3163.1446-.5745.4151-.7748.8115s-.4225 1.0869-.6667 2.0713l-3.1626 12.7503c-.2889 1.1646-.4085 2.1736-.3589 3.027.0496.8535.2421 1.5544.5777 2.1028.3355.5484.7849.9976 1.348 1.3476.5632.35 1.301.6381 2.2134.8645.8404.2085 1.6153.2445 2.3245.1082.7093-.1363 1.3515-.4518 1.9266-.9463.5751-.4946 1.0494-1.1607 1.4229-1.9985.3735-.8377.7433-1.9949 1.1096-3.4717l2.7919-11.2556c.2591-1.0445.3852-1.7715.3785-2.181-.007-.4095-.1019-.7453-.2854-1.0075s-.6176-.5801-1.3023-.9539l.2189-.8824 7.1856 1.7823-.2189.8824c-.741.007-1.2674.0871-1.5791.2392-.3118.1521-.5663.4203-.7635.8047-.1973.3844-.4181 1.0688-.6622 2.0533z"/><path d="m283.8791 881.3653-3.416-10.2547c-.4124-1.2393-.7347-2.1302-.9669-2.6728-.2322-.5425-.4823-.9815-.7505-1.3169-.2682-.3353-.5978-.6061-.9889-.8121l.1557-.8958 7.7876 1.3532-.1557.8958c-1.1689-.065-1.8275.3291-1.9757 1.1822-.0614.3535-.048.7638.0403 1.2311s.2758 1.1402.5626 2.0187l2.4459 7.6003 4.7067-5.736c.6378-.7806 1.1055-1.4306 1.4029-1.9502s.4864-1.0109.5669-1.474c.0762-.4387.005-.8058-.2136-1.1012-.2186-.2953-.5796-.5119-1.083-.6496l.1557-.8958 6.9284 1.2039-.1556.8958c-.5315.096-1.0142.2727-1.448.53-.434.2573-.8936.6263-1.3788 1.107-.4853.4807-1.219 1.3074-2.2012 2.4801l-6.5877 7.782-1.0292 5.923c-.1207.6947-.1816 1.2616-.1826 1.7009s.0616.8017.1877 1.0873.3167.5258.5716.7208.6693.4113 1.2432.6492l-.1557.8958-8.3543-1.4517.1557-.8958c.6062-.0202 1.0616-.0761 1.3662-.1675s.5651-.2534.7812-.4857c.2161-.2324.4009-.555.5542-.9677.1533-.4128.2914-.9726.4142-1.6795z"/><path d="m333.1459 892.3942c-.0343.7166-.0414 1.255-.0214 1.6151.0199.3601.068.6503.1442.8707.0761.2204.1727.4014.2898.5433.117.1418.2872.2738.5105.3959.2232.1221.5729.2565 1.0489.4031l-.0434.9081-7.7656-.3711.0434-.9082c.6878-.1405 1.1727-.3093 1.4545-.5064.2819-.1971.4856-.5093.6113-.9367s.213-1.1539.262-2.1794l.3711-7.7656-10.3047-.4924-.3711 7.7656c-.0396.8278-.0407 1.4346-.003 1.8203.0373.3857.1155.6928.2346.9214s.3018.4231.548.5835.6499.3283 1.2112.5037l-.0434.9082-7.8026-.3728.0434-.9081c.7755-.1611 1.2987-.3559 1.5697-.5844s.4573-.5633.5588-1.0043c.1016-.441.1742-1.1186.2179-2.0329l.766-16.0315c.0407-.8525.0395-1.4749-.004-1.8671-.0432-.3921-.1307-.6997-.2624-.9228-.1318-.223-.3119-.405-.5405-.546-.2286-.1409-.6232-.3053-1.1839-.4931l.0434-.9081 7.8026.3728-.0434.9082c-.5502.11-.9489.2271-1.1964.3515-.2474.1244-.4471.2852-.5989.4822-.1518.1971-.2715.4979-.3589.9024s-.1515 1.033-.1923 1.8856l-.3135 6.5609 10.3047.4924.3135-6.5609c.0514-1.0749.034-1.8126-.0522-2.213-.0861-.4004-.2478-.7115-.4848-.9334-.2371-.2218-.7154-.449-1.4349-.6816l.0434-.9082 7.7656.3711-.0434.9081c-.7002.1399-1.1914.3115-1.4735.5147-.2822.2033-.483.5187-.6025.9464-.1195.4278-.2035 1.1482-.2519 2.1613z"/><path d="m356.3412 871.3552.1395 5.6018-1.8178.0453c-.2006-.6013-.4055-1.1283-.6148-1.5809s-.4229-.8309-.6408-1.1348-.456-.5454-.7141-.7246-.5612-.2984-.9091-.3579c-.348-.0594-.7631-.0831-1.2453-.0711l-5.8615.146.2421 9.7196 3.9695-.0989c.5441-.0135.9688-.1015 1.2741-.2637.3053-.1623.5553-.4314.7501-.8075s.3751-.9621.5409-1.7582l1.7436-.0434.1774 7.1228-1.7436.0434c-.1916-.7376-.3972-1.2924-.6168-1.6644-.2196-.3719-.4767-.6346-.7713-.7882-.2946-.1535-.7325-.223-1.3137-.2086l-3.9695.0989.2666 10.7027 5.7687-.1437c.6059-.0151 1.0962-.0799 1.4707-.1944s.6947-.3019.9604-.5622.4986-.5971.6987-1.0104c.2-.4133.3657-.8412.497-1.2838.1313-.4425.3101-1.0873.5365-1.9344l1.8363-.0457-.1903 6.5195-17.1763.4278-.0226-.9089c.7618-.217 1.2695-.4492 1.5232-.6968s.4152-.595.4845-1.0422.0925-1.1283.0697-2.0434l-.3996-16.0448c-.0213-.8532-.0677-1.4738-.1392-1.8619-.0715-.388-.1811-.6884-.3287-.9013-.1476-.2128-.3405-.3813-.5787-.5053s-.6437-.2593-1.2165-.4059l-.0226-.9089z"/><path d="m366.1185 884.9512.5926 6.2807c.0836.8867.1782 1.527.2837 1.9208.1055.3939.2356.686.3902.8764s.355.3392.6012.4465c.2462.1072.6601.2142 1.2417.3208l.0854.9052-7.7955.7356-.0854-.9052c.7449-.2691 1.2354-.5359 1.4714-.8005.236-.2645.373-.6223.4113-1.0732.0382-.4509.0143-1.132-.0717-2.0433l-1.5077-15.9788c-.0802-.8497-.1694-1.4656-.2675-1.8478-.0982-.3821-.2283-.6742-.3902-.8764-.162-.2021-.366-.3568-.6122-.4641-.2462-.1072-.6601-.2142-1.2417-.3208l-.0854-.9052 9.144-.8628c2.8817-.2719 5.0863.0482 6.6136.9601 1.5273.912 2.395 2.4702 2.603 4.6746.1592 1.6872-.1704 3.1658-.9886 4.4357-.8183 1.27-2.1258 2.3252-3.9226 3.1657l.014.1478c.7803.237 1.4653.6166 2.055 1.1387s1.2679 1.3558 2.0345 2.5011l1.9484 2.8726c.5639.8414 1.0404 1.4798 1.4294 1.9152s.7736.7595 1.154.9721.8708.3403 1.4712.383l.0854.9052-5.1169.4828c-.5296-.6086-1.0392-1.2687-1.5287-1.9804-.4896-.7117-.9742-1.4363-1.4538-2.1738l-1.9167-2.9316c-.5809-.8895-1.0493-1.5411-1.4052-1.9548s-.6746-.6974-.9562-.851-.5765-.25-.8846-.2893-.7639-.0304-1.3673.0265zm-1.1852-12.5614 1.0353 10.9728 2.0874-.197c1.0714-.1011 1.9324-.26 2.5829-.4767s1.2386-.5673 1.7645-1.0518c.5258-.4845.9218-1.1275 1.1878-1.9292.266-.8016.3462-1.7628.2405-2.8835-.1104-1.1699-.4023-2.1239-.8758-2.862s-1.1358-1.272-1.9869-1.6017c-.8512-.3297-1.9664-.4295-3.3457-.2993-1.1084.1046-2.005.2141-2.69.3284z"/><path d="m394.8076 892.7139c-1.4634.2486-2.8367.2341-4.1197-.0435-1.2831-.2776-2.441-.8526-3.4737-1.7248s-1.9186-2.0611-2.6574-3.5667c-.7389-1.5056-1.2958-3.362-1.6708-5.5693-.462-2.7195-.4442-5.1253.0536-7.2174s1.4315-3.7783 2.8012-5.0587 3.0728-2.0935 5.1094-2.4396c2.1707-.3688 4.0782-.2004 5.7226.5052 1.6443.7056 2.9995 1.9246 4.0654 3.6569 1.0659 1.7324 1.8258 3.9339 2.2795 6.6046.4848 2.8537.4672 5.3347-.0529 7.4431s-1.4747 3.7825-2.8638 5.0223-3.1203 2.0358-5.1934 2.388zm-8.2403-12.0567c.6361 3.7439 1.6656 6.4987 3.0885 8.2645s3.1832 2.4705 5.2808 2.1141c1.3293-.2258 2.3853-.8413 3.1681-1.8463s1.2671-2.364 1.4529-4.0768c.1858-1.7129.0932-3.6607-.2776-5.8437-.4517-2.6585-1.0975-4.8167-1.9375-6.4745s-1.7969-2.8032-2.8705-3.4364c-1.0737-.6331-2.2325-.844-3.4764-.6327-1.0976.1865-1.9961.6026-2.6957 1.2484-.6996.6459-1.2282 1.4854-1.5859 2.5185-.3577 1.0332-.5415 2.2407-.5514 3.6225-.01 1.3819.125 2.896.4047 4.5423z"/><path d="m413.9444 883.8252c.1852.8078.3478 1.3924.4877 1.7537s.2981.636.4745.824c.1763.188.4047.326.685.414s.7144.1408 1.3022.1583l.2032.8862-7.6321 1.7497-.2032-.8862c.7033-.3643 1.1546-.693 1.3539-.9862s.2884-.6657.2672-1.1178c-.0211-.452-.134-1.1241-.3385-2.0164l-3.5865-15.644c-.1907-.8319-.3598-1.4309-.5071-1.7969-.1474-.366-.3146-.6385-.5016-.8178-.187-.1792-.4096-.3058-.6677-.3799-.2581-.074-.6824-.1259-1.273-.1555l-.2032-.8862 7.6321-1.7497.2032.8862c-.5001.2543-.8525.4747-1.0572.6612-.2047.1866-.3536.3952-.4466.6259-.0931.2308-.1271.5527-.1022.9657.0249.4131.1327 1.0356.3235 1.8675z"/><path d="m431.134 858.3398 1.4059 4.9436-1.7669.5025c-.5799-.9539-1.1771-1.6746-1.7916-2.1622-.6145-.4875-1.2505-.7793-1.9079-.8753-.6575-.0959-1.3967-.0272-2.2176.2063-1.2255.3485-2.2013 1.0665-2.9273 2.1539s-1.1301 2.5269-1.2121 4.3185c-.0821 1.7916.2068 3.8475.8666 6.1676.6632 2.332 1.4551 4.2577 2.3759 5.777.9207 1.5193 1.9406 2.5732 3.0596 3.1616s2.321.6999 3.606.3345c.9756-.2774 1.733-.6439 2.2722-1.0995s.9337-1.0468 1.1835-1.7737.3976-1.7335.4434-3.0196l1.7669-.5025 1.4515 5.1043c-1.0339.6155-2.1156 1.1643-3.2452 1.6463-1.1297.482-2.3965.9226-3.8004 1.3219-3.0221.8594-5.5975.4858-7.7262-1.1208s-3.77-4.4385-4.9238-8.4957c-.7241-2.5462-.9569-4.8912-.6986-7.0352.2584-2.144 1.018-3.9611 2.2789-5.4514s2.9741-2.5433 5.1395-3.1591c1.0827-.3079 2.0982-.5356 3.0465-.6831s2.0554-.234 3.3213-.2597z"/><path d="m453.7925 876.6506-.3083-.8553c.5399-.3261.9272-.6104 1.162-.8528s.3769-.5139.4263-.8144-.001-.6602-.1524-1.0792c-.1427-.3956-.3434-.8065-.6021-1.2326-.2588-.4261-.5783-.8928-.9584-1.4001l-1.4576-2.0189-8.1341 2.9323.0232 1.9246c.008.9702.045 1.6932.1113 2.1689.0663.4758.1645.894.2946 1.2547.2517.6982.6137 1.1463 1.0861 1.3441.4724.1979 1.094.2171 1.8649.0575l.3083.8553-7.4533 2.6869-.3083-.8553c.6139-.3397 1.0449-.9224 1.2929-1.7481s.3808-1.9255.3983-3.2994l.3129-21.9468 2.7579-.9942 12.9509 17.323c.6065.807 1.1034 1.4102 1.4907 1.8097s.7804.6785 1.1795.8371c.399.1586.8834.2075 1.4533.1467l.3083.8553zm-10.1007-7.0094 7.2962-2.6303-7.3752-10.0629z"/><path d="m569.2179 796.3769c.589.5831 1.0393.9898 1.3509 1.22.3117.2302.5923.3775.8419.4419s.5164.0587.8003-.0171.6788-.2636 1.1846-.5635l.6461.6397-5.509 5.5642-.6461-.6397c.399-.6842.6041-1.2035.6155-1.5578.0113-.3543-.1129-.7167-.3728-1.0871s-.7151-.8777-1.3655-1.5217l-11.4054-11.2922c-.6065-.6005-1.07-1.0159-1.3904-1.2461s-.6076-.3709-.8615-.4221-.5097-.039-.7674.0366c-.2576.0756-.6438.2591-1.1584.5503l-.6461-.6397 5.509-5.5642.6461.6397c-.2862.4825-.4659.8574-.5389 1.1245-.073.2672-.087.5231-.0421.7677.045.2447.1886.5348.4308.8704s.6666.8036 1.2731 1.4041z"/><path d="m579.6022 777.137c.851.1581 1.5853.308 2.2031.4497.6177.1417 1.2926.3216 2.0246.5395l.1598-.1807c-.6062-.4535-1.7667-1.4053-3.4813-2.8555-1.7147-1.4502-3.2484-2.7734-4.6013-3.9698l-2.9189-2.5812c-.6394-.5654-1.1237-.9606-1.453-1.1858-.3293-.2251-.6157-.3587-.8593-.4007s-.4898-.0203-.7387.0651-.622.288-1.1194.6077l-.6811-.6023 4.4248-5.0039.6811.6023c-.2575.5154-.4158.8997-.4747 1.153-.0589.2534-.0614.4989-.007.7366.054.2377.2047.5154.4521.8332s.7093.7758 1.3857 1.374l15.5816 13.7784-1.5364 1.7375-19.8286-3.7378c-1.2323-.231-2.1239-.4085-2.6748-.5324s-1.0849-.2576-1.602-.4011l-.209.2363c.7709.5661 2.1022 1.6608 3.994 3.2841s3.7643 3.2544 5.6176 4.8932l2.8355 2.5074c.6209.549 1.0934.9297 1.4175 1.142s.6126.3436.8655.3938c.2528.0502.5188.0295.798-.0622.2792-.0916.6628-.3014 1.151-.6293l.6811.6023-4.4863 5.0734-.6811-.6023c.3598-.7056.5354-1.2356.5267-1.59-.009-.3544-.1531-.7092-.4334-1.0644s-.7634-.836-1.4491-1.4424l-12.0233-10.6319c-.6394-.5654-1.1255-.954-1.4584-1.1658s-.6275-.3361-.8839-.3729-.5111-.0102-.7641.0798-.6282.2949-1.1256.6146l-.6811-.6023 3.8471-4.3506z"/><path d="m578.0865 754.8312.7229.5514c-.2664.5125-.4306.9317-.4927 1.2578-.062.3261-.0299.6307.0965.9137.1264.2831.3715.5634.7354.841.3344.2551.7259.4915 1.1744.7091.4485.2177.97.4365 1.5644.6566l14.6715 5.7304-8.8971-13.4841c-.1419-.2015-.2935-.4106-.4551-.6272-.1615-.2165-.3238-.422-.4867-.6163s-.3125-.3551-.4488-.4824-.2683-.2397-.3962-.3372c-.5901-.4501-1.1235-.6431-1.6003-.579-.4768.0642-1.0119.3833-1.6054.9574l-.7229-.5514 4.7263-6.1962.7229.5514c-.2092.4783-.3142.9116-.3149 1.3-.0007.3885.1136.8607.3429 1.4167.2293.5561.6651 1.3513 1.3073 2.3857l11.676 18.5909-1.4742 1.9326-20.2416-7.5756c-1.0975-.4171-1.9107-.6718-2.4394-.7639s-.979-.0933-1.3508-.004c-.3718.0898-.7645.3037-1.1779.6417l-.7229-.5514z"/><path d="m607.314 749.7221c.6845.4673 1.2008.786 1.5489.9563.3481.1702.6507.2645.9078.2827.2571.0183.5185-.0355.784-.1612.2656-.1257.6201-.3817 1.0635-.768l.7509.5126-4.4147 6.4669-.7509-.5126c.2689-.745.377-1.2928.3243-1.6433-.0528-.3505-.2404-.6845-.5628-1.002-.3225-.3175-.8617-.7343-1.6177-1.2504l-13.2556-9.049c-.7049-.4812-1.2357-.8061-1.5924-.9747s-.6645-.2552-.9235-.2598c-.259-.005-.5084.0536-.7482.1745s-.5865.371-1.0401.7503l-.7509-.5126 4.4147-6.4669.7509.5126c-.1945.5263-.3035.9273-.3272 1.2033-.0236.276.009.5302.0971.7627.0884.2326.282.492.5807.7784.2988.2864.8007.6701 1.5056 1.1513z"/><path d="m602.6565 719.3288 4.3862 2.679-.9575 1.5676c-1.0731-.3076-2.0008-.4321-2.7831-.3736-.7822.0586-1.4474.2755-1.9956.6509s-1.0447.9274-1.4896 1.6557c-.6641 1.0873-.8941 2.2767-.6901 3.5682.2041 1.2915.8836 2.6233 2.0385 3.9954 1.1549 1.3722 2.7616 2.6869 4.8201 3.9442 2.0691 1.2638 3.9571 2.1416 5.6642 2.6334 1.7071.4919 3.1713.5745 4.3927.2479s2.1802-1.06 2.8766-2.2001c.5287-.8656.8367-1.6487.9239-2.3491s-.0239-1.4025-.3334-2.1061-.8836-1.5434-1.7224-2.5196l.9575-1.5676 4.5287 2.7661c-.3422 1.1535-.7648 2.2905-1.268 3.4109s-1.1351 2.3035-1.896 3.5491c-1.6377 2.6813-3.7836 4.1537-6.4375 4.417s-5.7807-.7043-9.3805-2.903c-2.2591-1.3798-4.0208-2.945-5.2852-4.6957-1.2644-1.7506-1.9387-3.6011-2.023-5.5514s.4603-3.8861 1.6338-5.8073c.5868-.9606 1.1785-1.8167 1.7753-2.5684.5968-.7516 1.3516-1.5661 2.2643-2.4436z"/><path d="m603.0209 717.6915 9.302-17.7912 5.7221 2.9918-.8425 1.6114c-1.0688-.2517-1.9389-.403-2.6102-.4539s-1.2183-.0193-1.6408.0948c-.4226.1141-.7729.2903-1.0511.5287s-.5749.6591-.8901 1.262l-1.0918 2.0882 16.8375 8.8033c.6468.3382 1.1806.5719 1.6015.7012.4209.1294.7824.1788 1.0845.1483s.5821-.1388.84-.3251c.2579-.1862.5875-.5164.989-.9905l.8057.4213-3.9288 7.5144-.8057-.4213c.0952-.369.1649-.7025.209-1.0004.0441-.298.0447-.5594.002-.7843-.043-.2249-.1359-.4409-.2787-.6482-.1429-.2073-.3685-.4299-.6767-.6679-.3083-.238-.7913-.5289-1.449-.8728l-16.8375-8.8033-1.0832 2.0718c-.2694.5152-.4421.9658-.5183 1.3517-.0761.3859-.0325.8031.1309 1.2514.1634.4484.4713.9408.9235 1.4774.4523.5366 1.0625 1.1383 1.8305 1.805l-.8511 1.6278z"/><path d="m641.2778 696.9788-.8334-.3633c.1338-.6164.1932-1.0931.1782-1.4303-.015-.3371-.1147-.6269-.2991-.8692-.1845-.2423-.4808-.4525-.889-.6305-.3855-.1681-.822-.3044-1.3095-.4089-.4874-.1045-1.0461-.1929-1.6758-.265l-2.4685-.3272-3.4554 7.926 1.4147 1.305c.7106.6606 1.2615 1.1302 1.6529 1.4088.3913.2786.7628.4945 1.1143.6477.6803.2966 1.2547.3412 1.7229.1338.4683-.2074.9092-.6461 1.3226-1.316l.8334.3633-3.1662 7.2627-.8334-.3633c.1748-.6795.0472-1.3929-.3826-2.1403s-1.138-1.5993-2.1245-2.5556l-15.7364-15.3011 1.1716-2.6874 21.4857 2.4849c1.0031.1135 1.7828.1666 2.3392.1595.5564-.007 1.0292-.1012 1.4185-.2823s.7576-.4996 1.1048-.9555l.8334.3633zm-12.032 2.5272 3.0995-7.1096-12.3794-1.5511z"/><path d="m642.9097 661.4179-10.5843 2.191c-1.2791.2644-2.2016.4801-2.7676.6471s-1.0312.364-1.3957.591-.6719.5227-.9224.8869l-.8714-.2595 2.2563-7.5754.8714.2595c-.2015 1.1532.1127 1.8534.9425 2.1006.3438.1024.7529.1371 1.2274.1042s1.1647-.1403 2.0707-.3222l7.8345-1.5386-5.145-5.3463c-.7005-.7249-1.2913-1.2655-1.7724-1.6218-.4811-.3562-.947-.6015-1.3975-.7357-.4268-.1271-.7996-.0994-1.1186.0831-.3189.1825-.5763.5157-.772.9994l-.8714-.2595 2.0073-6.7397.8714.2595c.0331.5391.152 1.0391.3566 1.5002.2047.4611.5173.9608.9378 1.499.4205.5383 1.1555 1.3638 2.2051 2.4766l6.9566 7.4541 5.7616 1.716c.6757.2013 1.2317.3281 1.6678.3806s.8034.0328 1.1018-.0591c.2984-.0918.5593-.2529.7828-.4832s.4869-.6165.7903-1.1585l.8714.2595-2.4204 8.1267-.8714-.2595c.0509-.6043.0488-1.0632-.006-1.3764-.0551-.3133-.1854-.5909-.3909-.8327-.2055-.2419-.5042-.4631-.8962-.6638-.392-.2006-.9318-.4034-1.6194-.6082z"/><path d="m641.0855 603.754c.05.5588.1234.9679.2204 1.2273s.2353.4753.4148.6474c.1796.1722.4657.3236.8584.4542s1.0106.2621 1.8538.3946l15.8553 2.4913c.8187.1287 1.4218.1953 1.8093.1998.3875.005.7012-.04.9414-.1338.2401-.0937.4532-.2543.6392-.4818.186-.2274.3965-.6107.6314-1.1498l.8982.1411-1.201 7.6435-.8982-.1411c-.0616-.7234-.1813-1.2368-.359-1.5402s-.4728-.5376-.8851-.7025-1.1134-.3252-2.1032-.4807l-7.0203-1.1031c-1.8452-.2899-3.7075-.6107-5.5868-.9624-1.8793-.3516-3.1615-.6188-3.8465-.8016l-.049.3116 17.0243 10.1128-.3312 2.1079-19.518 3.8451-.049.3116c.755.056 2.1145.2102 4.0783.4624s3.9783.5406 6.0435.8651l6.7087 1.0541c.8187.1286 1.4218.1952 1.8093.1998.3875.005.7012-.0401.9414-.1338.2401-.0937.4532-.2543.6392-.4818s.3965-.6107.6314-1.1498l.8982.1411-1.0512 6.6904-.8982-.1411c-.0765-.7884-.2137-1.3296-.4117-1.6236-.198-.2941-.5107-.5154-.9381-.6639s-1.0933-.2939-1.9976-.436l-15.8553-2.4913c-.8432-.1325-1.462-.1984-1.8565-.1978s-.7097.0544-.9457.1613c-.2359.1069-.4363.2664-.6011.4784s-.3708.5866-.618 1.1238l-.8982-.1411 1.0282-6.5437 18.8458-3.6314-16.7232-9.8776.9735-6.1955z"/><path d="m666.4631 590.5241-.9069-.065c-.0792-.6257-.1819-1.0951-.3083-1.408s-.3169-.5529-.5716-.72-.6041-.2665-1.0482-.2984c-.4195-.03-.8765-.0132-1.3709.0506s-1.0506.1666-1.6684.3083l-2.4365.5137-.6181 8.6244 1.7686.7592c.89.3862 1.5659.6455 2.0277.7778s.8839.2122 1.2664.2396c.7403.0531 1.2967-.0962 1.6691-.4477s.642-.912.8088-1.6813l.9069.065-.5664 7.9026-.9069-.065c-.0615-.6989-.4194-1.3291-1.0736-1.8907s-1.6057-1.1289-2.8544-1.7021l-19.9343-9.1859.2096-2.9241 21.0865-4.8134c.9836-.2271 1.7365-.4367 2.2587-.6287s.9367-.4382 1.2435-.7387c.3068-.3004.5479-.7234.7234-1.2689l.9069.065zm-10.5033 6.3905.5545-7.736-12.1892 2.6608z"/><path d="m656.0892 573.7302 6.3086-.003c.8906-.0004 1.5369-.0347 1.9389-.1029s.705-.1704.9091-.3066c.204-.1362.371-.3218.5007-.5569.1298-.2351.275-.6372.4355-1.2062l.9092-.0004.003 7.8301-.9092.0004c-.1982-.7668-.418-1.2801-.6594-1.5398-.2413-.2597-.5847-.4296-1.03-.5098s-1.1257-.1201-2.0411-.1197l-16.0498.007c-.8535.0004-1.4751.0316-1.8647.0936s-.6926.1642-.909.3066-.3895.3311-.5193.5661c-.1298.2351-.2749.6372-.4355 1.2062l-.9092.0004-.004-9.1846c-.001-2.8945.5236-5.0595 1.5743-6.4948 1.0508-1.4353 2.6833-2.1535 4.8975-2.1545 1.6947-.0007 3.136.4656 4.3239 1.399s2.1163 2.3339 2.785 4.2014l.1484-.0001c.3089-.7547.7509-1.4012 1.3258-1.9395.575-.5383 1.4684-1.1356 2.6804-1.7917l3.0423-1.6712c.8904-.4828 1.5706-.8975 2.0405-1.2441.4699-.3465.8285-.6992 1.0757-1.0581.2472-.3588.4202-.8351.5189-1.4289l.9092-.0004.002 5.1396c-.6554.4704-1.3603.916-2.1147 1.3369s-1.5211.8356-2.3002 1.2442l-3.0979 1.6342c-.9399.4952-1.6324.9006-2.0776 1.2162s-.7574.6065-.9366.8725-.3028.5506-.3707.8537-.1017.7577-.1015 1.3638zm-12.6172.005 11.0215-.005-.0009-2.0967c-.0005-1.0762-.0781-1.9482-.2331-2.6161-.1549-.6679-.449-1.2862-.8822-1.8551-.4332-.5688-1.0364-1.0231-1.8097-1.363-.7733-.3398-1.7227-.5095-2.8484-.509-1.1751.0005-2.1522.202-2.9314.6043-.7791.4024-1.3726 1.0118-1.7805 1.8284-.4078.8166-.6115 1.9176-.6109 3.303.0005 1.1133.0256 2.0163.0754 2.709z"/><path d="m661.869 550.3886c.8275-.0453 1.4312-.1062 1.8111-.1827s.6774-.1857.8926-.3276c.2152-.1418.39-.3434.5244-.6047s.2601-.6801.3772-1.2564l.9078-.0497.4277 7.8184-.9078.0497c-.2395-.755-.4868-1.2556-.7418-1.5018s-.6071-.3973-1.0561-.4532c-.449-.056-1.1306-.0589-2.0446-.009l-16.0258.8768c-.8522.0466-1.4712.1115-1.8569.1945s-.6827.2015-.8911.3554-.371.3517-.4878.5935-.24.6511-.3695 1.2281l-.9078.0497-.4277-7.8184.9078-.0497c.1656.536.3229.9208.472 1.1542s.3294.4156.5409.5465c.2116.1309.523.2192.9343.2648s1.0431.0451 1.8953-.001z"/><path d="m664.8024 531.0274-.9037.0993c-.1905-.6013-.3761-1.0444-.5567-1.3295-.1806-.285-.4112-.4868-.6918-.6053s-.6422-.1534-1.0848-.1048c-.4181.0459-.8645.1448-1.3394.2965s-1.0034.3529-1.5857.6035l-2.3043.9438.9441 8.5948 1.8764.4286c.945.2198 1.6565.3531 2.1346.4002s.9077.0496 1.2888.008c.7378-.081 1.2582-.328 1.5613-.7408s.4674-1.0127.493-1.7995l.9038-.0993.8651 7.8755-.9038.0993c-.1863-.6764-.6518-1.2319-1.3964-1.6666-.7446-.4346-1.7826-.8215-3.1141-1.1606l-21.262-5.4484-.3201-2.9141 19.876-8.5298c.9267-.4004 1.6296-.7421 2.1087-1.0249.4792-.2828.8426-.5996 1.0903-.9504.2477-.3507.4088-.8102.4832-1.3784l.9038-.0993zm-9.1817 8.1764-.8468-7.7095-11.5113 4.811z"/><path d="m650.8462 507.155c.6474-.5744 1.2168-1.0619 1.708-1.4623.4913-.4004 1.0477-.8225 1.6693-1.2663l-.0444-.2371c-.7302.1998-2.1941.5309-4.3917.9932-2.1975.4623-4.1838.8599-5.9589 1.1927l-3.8298.718c-.8389.1573-1.4483.2967-1.8283.4183-.3799.1216-.6613.2656-.844.432s-.3169.3741-.4024.6229c-.0855.2489-.1548.6677-.208 1.2566l-.8936.1675-1.2308-6.5653.8936-.1675c.2485.5198.4546.8807.6183 1.0828.1638.2021.356.3549.5767.4582.2208.1034.5325.1551.9352.155.4028 0 1.0479-.0832 1.9354-.2496l20.4436-3.8327.4274 2.2796-15.129 13.3513c-.9392.8305-1.6269 1.4251-2.0631 1.7837-.4362.3587-.8697.6979-1.3006 1.0178l.0581.31c.9202-.2606 2.6018-.6388 5.0448-1.1346s4.8803-.9716 7.3119-1.4274l3.7203-.6975c.8146-.1527 1.4052-.2918 1.7718-.4171.3666-.1254.6474-.2724.8423-.4411s.3419-.3913.4411-.6679.1693-.7082.2103-1.2948l.8936-.1675 1.2479 6.6565-.8936.1675c-.3359-.7173-.6462-1.1814-.9312-1.3923s-.6537-.3148-1.1062-.3118-1.1286.0889-2.0283.2576l-15.775 2.9574c-.8389.1573-1.4441.3022-1.8157.4348s-.6506.2887-.8372.4684c-.1865.1797-.322.397-.4064.652-.0843.2549-.1531.6768-.2063 1.2657l-.8936.1675-1.0701-5.7082z"/><path d="m655.2357 482.4278-.8783.2351c-.2794-.5655-.53-.9754-.7518-1.2297s-.4803-.4188-.7756-.4935c-.2953-.0746-.658-.0543-1.0882.0608-.4063.1088-.8326.2741-1.279.4961s-.9383.5009-1.4759.8369l-2.1346 1.2821 2.236 8.3524 1.9197.1392c.9674.074 1.6909.098 2.1706.072s.9047-.0885 1.2751-.1877c.717-.1919 1.1939-.5149 1.4309-.9689s.3085-1.0718.2145-1.8534l.8783-.2351 2.0489 7.6533-.8783.2351c-.2867-.6404-.831-1.1189-1.6329-1.4357-.8019-.3167-1.8866-.5418-3.254-.6751l-21.8422-2.1624-.7581-2.8319 18.3533-11.4441c.8553-.5363 1.4983-.9805 1.929-1.3328.4307-.3522.7419-.7204.9336-1.1047.1917-.3842.2812-.8628.2687-1.4357l.8783-.2351zm-7.8362 9.4737-2.0057-7.492-10.649 6.5004z"/><path d="m16.1362 599.1719c.0051.9071.0639 1.9145.1763 3.0221.1637 1.6121.4939 2.8437.9906 3.6947s1.1623 1.4361 1.9966 1.7555c.8344.3193 1.8484.4184 3.0422.2972 1.1937-.1212 2.1561-.4397 2.887-.9552.7309-.5156 1.2409-1.2481 1.53-2.1976.289-.9494.3523-2.2241.1899-3.8239l-.2905-2.8613zm12.4746 1.9971c.1899 1.8706.7875 3.2553 1.7926 4.1541s2.3691 1.2607 4.0921 1.0858c.8491-.0863 1.5396-.2962 2.0715-.63.5318-.3338.9392-.7606 1.2221-1.2804.2829-.5199.4614-1.1193.5354-1.7982s.0717-1.406-.007-2.1813c-.0475-.4677-.1223-1.0817-.2244-1.8422s-.1848-1.3303-.2482-1.7093l-9.5622.971zm-14.7981-7.4307.9045-.0919c.2744.743.5447 1.2315.8109 1.4656s.6249.3686 1.0761.4036 1.1321.006 2.0428-.0862l15.9677-1.6214c.8491-.0862 1.4644-.1798 1.8458-.2807s.6726-.2331.8736-.3964c.201-.1634.3542-.3686.4597-.6155s.2094-.6616.312-1.2439l.9045-.0919 1.0253 10.0975c.1987 1.9567.1491 3.5501-.1487 4.7802-.2979 1.2301-.8266 2.1758-1.5862 2.8374-.7597.6615-1.7856 1.0579-3.0777 1.1891-1.0707.1087-2.0208-.003-2.8502-.3354-.8295-.3323-1.5364-.8045-2.1208-1.4165-.5844-.6121-1.1512-1.4187-1.7004-2.4197l-.1661.0169c-.3346 1.7249-.9843 3.0715-1.949 4.0398s-2.1732 1.5262-3.6253 1.6736c-1.6737.1699-3.0775-.0636-4.2115-.7007s-2.006-1.6023-2.616-2.8956-1.0119-2.8937-1.2056-4.8012z"/></g><path d="m90.4998 220.5v349.5c0 137.724 111.776 249.5 249.5 249.5s249.5-111.776 249.5-249.5v-349.5z" fill="#ed1c24" stroke="#000" stroke-linecap="round" stroke-linejoin="round"/><g stroke="#000" stroke-linecap="round" stroke-linejoin="round"><g><path d="m519.431 367.4956c-.411 21.2108 5.3562 31.9919 10.7491 32.5383 13.5438 1.3722 20.1451 9.6435 22.9548 22.0396 4.5286 19.9798 9.879 44.512 10.6766 64.5174 1.4966 37.5372-6.0001 45.5946-12.5069 55.1133 1.4071 38.7403.5113 77.3488 5.0556 111.7866.2971 2.2516.1044 4.2197-.1969 5.7634-2.0676 10.5931-4.8054 34.6509-12.5094 36.8611-20.4011 5.0716-60.6063 2.6568-84.5106 1.8147-4.5609-3.3903-10.205-10.3246-16.4353-12.1435-3.7768-1.1026-3.8001-5.6261-3.3555-8.5413 9.6192-63.0695 10.7441-127.5417-1.9566-175.2233-3.6016-13.5213-7.04-25.2669-.1787-39.5297 8.2369-17.1223 11.1666-24.6126 13.6314-41.452 1.9688-13.4509 8.8698-15.7349 14.4329-18.8579 4.5955-2.5798 10.5313-8.4098 12.7596-12.0972l40.3169-30.0914z" fill="#eac102"/><path d="m530.1801 400.0339c-3.6395-.3395-9.5944-5.4807-11.1264-8.3249.1302-1.971-2.8504-3.2692-3.1791-5.5591" fill="none"/><path d="m519.0537 391.709c-20.7411 4.8279-10.3838 25.7254-38.825 23.5009" fill="none"/><path d="m484.8877 406.6687c-.7337 7.8734-.3094 14.4844-.2359 20.7432" fill="none"/><path d="m526.7283 438.9924c2.7112 5.5399 5.3783 13.1135 6.471 21.1387" fill="none"/><path d="m448.6334 460.9104c-2.261 1.2674-6.3299 2.4861-8.6709 4.0222" fill="none"/><path d="m534.0433 466.0711c17.5579 16.4384 29.5423 50.4734 17.2613 75.6331-5.6158 11.5049-10.1254 22.7599-10.6112 36.6828" fill="none"/><path d="m481.3301 443.4948c27.2876-1.1362 42.2291 12.9538 52.7126 22.5701l7.342 14.3801-.5727 34.3694c.882 19.5459.6716 41.7334-.1186 63.5728-1.1916 32.9334.0806 67.2342 2.9605 117.7283-6.4361 5.7105-16.1058 21.4368-21.0856 23.1538-.1698 2.9154-4.5679 3.0712-6.8731 2.5662-3.8327 8.094-13.2238 16.9131-20.3148 16.9131-8.0605 0-5.9862-11.858-6.0363-18.7989-2.7734-.2443-5.7275-1.1159-5.4809-4.2002-3.2253-2.2907-2.0084-6.6168-8.2424-8.4716-8.8556-2.6348-10.5045-4.9272-12.2381-7.2662-.9283-1.2525-2.818-.9312-4.2395-2.0816 5.2203-155.4065-5.293-186.7254-9.6999-207.3017z" fill="#e5e5e5"/><path d="m517.4444 635.1488c-.429 22.3131 6.4129 74.6669 5.1239 84.1204" fill="none"/><path d="m485.8721 668.8565c-.3144 9.2624-.9309 36.0623-2.0088 46.8929" fill="none"/><path d="m489.9902 496.3525c-4.7656 22.6033-4.764 41.4518-5.6434 60.9462 1.6429 16.8633 3.899 33.0241 7.1686 48.2606l-31.1026-5.2993c-.051-3.8682-.1948-10.6316-.2726-13.5554 4.1106-9.4633 7.7084-20.1759 10.1744-30.0606 1.1169-21.0514 2.506-41.1455 4.1181-60.9015z" fill="#eac102"/><path d="m484.3468 557.2987-14.0321-.6548" fill="none"/><path d="m478.0058 561.4255-.7706 10.8677 7.5238.5335-.1998 2.8176-7.5238-.5335-1.6839 23.748-2.7866-.1976 1.6839-23.748-7.5238-.5335.1998-2.8176 7.5238.5335.7706-10.8677z" fill="none"/><path d="m515.6952 721.8353c-10.1238-7.2515-21.4088-7.5779-26.351-1.8858" fill="none"/><path d="m516.9913 713.4105c-10.6499-8.9326-24.6592-.766-29.7976-3.4372" fill="none"/></g><g><path d="m160.5685 367.4956c.411 21.2108-5.3562 31.9919-10.7491 32.5383-13.5438 1.3722-20.1451 9.6435-22.9548 22.0396-4.5286 19.9798-9.879 44.512-10.6766 64.5174-1.4966 37.5372 6.0001 45.5946 12.5069 55.1133-1.4071 38.7403-.5113 77.3488-5.0556 111.7866-.2971 2.2516-.1044 4.2197.1969 5.7634 2.0676 10.5931 4.8054 34.6509 12.5094 36.8611 20.4011 5.0716 60.6063 2.6568 84.5106 1.8147 4.5609-3.3903 10.205-10.3246 16.4353-12.1435 3.7768-1.1026 3.8001-5.6261 3.3555-8.5413-9.6192-63.0695-10.7441-127.5417 1.9566-175.2233 3.6016-13.5213 7.04-25.2669.1787-39.5297-8.2369-17.1223-11.1666-24.6126-13.6314-41.452-1.9688-13.4509-8.8698-15.7349-14.4329-18.8579-4.5955-2.5798-10.5313-8.4098-12.7596-12.0972l-40.3169-30.0914z" fill="#eac102"/><path d="m149.8194 400.0339c3.6395-.3395 9.5944-5.4807 11.1264-8.3249-.1302-1.971 2.8504-3.2692 3.1792-5.5591" fill="none"/><path d="m160.9458 391.709c20.7411 4.8279 10.3838 25.7254 38.825 23.5009" fill="none"/><path d="m195.1118 406.6687c.7337 7.8734.3094 14.4844.2359 20.7432" fill="none"/><path d="m153.2712 438.9924c-2.7111 5.5399-5.3783 13.1135-6.471 21.1387" fill="none"/><path d="m231.3661 460.9104c2.261 1.2674 6.3299 2.4861 8.6709 4.0222" fill="none"/><path d="m145.9562 466.0711c-17.5579 16.4384-29.5423 50.4734-17.2613 75.6331 5.6158 11.5049 10.1254 22.7599 10.6112 36.6828" fill="none"/><path d="m198.6694 443.4948c-27.2876-1.1362-42.2291 12.9538-52.7126 22.5701l-7.342 14.3801.5727 34.3694c-.882 19.5459-.6716 41.7334.1186 63.5728 1.1916 32.9334-.0807 67.2342-2.9605 117.7283 6.4361 5.7105 16.1058 21.4368 21.0856 23.1538.1698 2.9154 4.5679 3.0712 6.8731 2.5662 3.8327 8.094 13.2238 16.9131 20.3148 16.9131 8.0605 0 5.9862-11.858 6.0363-18.7989 2.7734-.2443 5.7275-1.1159 5.4809-4.2002 3.2253-2.2907 2.0084-6.6168 8.2424-8.4716 8.8556-2.6348 10.5045-4.9272 12.2381-7.2662.9284-1.2525 2.818-.9312 4.2395-2.0816-5.2203-155.4065 5.293-186.7254 9.6999-207.3017z" fill="#e5e5e5"/><path d="m162.5551 635.1488c.429 22.3131-6.4129 74.6669-5.1239 84.1204" fill="none"/><path d="m194.1275 668.8565c.3144 9.2624.9308 36.0623 2.0088 46.8929" fill="none"/><path d="m190.0093 496.3525c4.7656 22.6033 4.764 41.4518 5.6434 60.9462-1.6429 16.8633-3.899 33.0241-7.1686 48.2606l31.1026-5.2993c.0509-3.8682.1948-10.6316.2726-13.5554-4.1106-9.4633-7.7084-20.1759-10.1744-30.0606-1.1169-21.0514-2.506-41.1455-4.1181-60.9015z" fill="#eac102"/><path d="m195.6527 557.2987 14.0322-.6548" fill="none"/><path d="m201.9937 561.4255.7706 10.8677-7.5238.5335.1998 2.8176 7.5238-.5335 1.6839 23.748 2.7866-.1976-1.6839-23.748 7.5238-.5335-.1998-2.8176-7.5238.5335-.7706-10.8677z" fill="none"/><path d="m164.3043 721.8353c10.1238-7.2515 21.4088-7.5779 26.351-1.8858" fill="none"/><path d="m163.0082 713.4105c10.6499-8.9326 24.6592-.766 29.7976-3.4372" fill="none"/></g><g><path d="m204.8238 351.2019c1.7948 1.6107-.7116 13.2553 1.6361 16.2911 2.0944 2.7081 1.6226 6.0881 1.3574 7.957-.4619 3.2549-.7394 6.1666-1.248 8.7738-.8305 4.2579-1.8742 7.8397-3.2447 11.6916l-24.6007-2.8673c-3.5823-4.8332-8.1663-8.4143-13.3734-11.2164l3.2355-28.9039 27.7233-6.5604z" fill="#ffb380"/><path d="m176.5931 350.8209c-.7801 5.6822-1.4934 8.7934.2974 10.4114 2.4206 2.1872 1.518 4.794 1.4021 7.1181-.5099 10.2219 2.4096 16.607 6.5604 17.6428 2.3267.5806 7.3692-4.2253 10.9114-4.1615 6.0316.1086 8.1306 4.3466 10.8051 2.3922 1.0299-.7526 1.4628.8231 1.4898 1.5983.1103 3.1626-.1856 8.0878-1.2942 11.2164-.9231 2.6052-5.9008 10.8421-10.4615 11.1086-6.005.3509-13.9549-3.2576-18.5557-9.0594-2.0688-2.6089-2.162-17.7789-4.7847-25.6314-1.0626-3.1817-4.9347-3.2941-5.0243.7534-.0174.7869-.0655 1.5251-.1372 2.2429-.4405 4.4126-1.8271 7.5611-3.6768 9.6974.6281-8.2216.8952-18.3949-1.4739-24.4308z" fill="#e5e5e5"/><path d="m167.8017 376.4526c-.3654 4.0798 1.9098 5.1253 3.2109 5.2712" fill="none"/><path d="m180.8579 364.8772c.7235-1.0256 2.3002-2.7913 4.7282-2.8979 1.2108-.0531 3.2487-.4689 5.2621-.9914 1.187-.3081 2.0882.7174 2.3641 1.6015" fill="none"/><path d="m197.3281 362.2568c.1712-.9601 1.5615-1.8418 2.9659-1.456 1.6417.4511 2.8747 1.7133 4.9388 1.5061" fill="none"/><path d="m182.6882 369.3004c2.6862-2.2068 5.6535-2.8675 9.1514-.6101" fill="none"/><path d="m196.1103 367.0126c.8646 4.3308 2.5882 7.5632 3.1813 10.4548.2328 1.1347-.4863 2.4765-1.2748 2.5097-2.2343.0943-3.7759 1.3456-5.1095 1.0677-1.6888-.3519-2.0701-2.2315-1.3727-3.3555" fill="none"/><path d="m197.5211 368.1946c1.9227-.9736 5.5958-1.5373 8.8082-.7245" fill="none"/><path d="m188.9427 369.321c0 .953-.6399 1.7256-1.429 1.7256-.7893 0-1.429-.7726-1.429-1.7256s.6398-1.7256 1.429-1.7256 1.429.7726 1.429 1.7256z"/><path d="m203.9878 369.2671c0 .953-.6399 1.7256-1.429 1.7256-.7893 0-1.429-.7726-1.429-1.7256s.6398-1.7256 1.429-1.7256 1.429.7726 1.429 1.7256z"/><path d="m191.9356 390.4058c-.0606-1.184.43-3.4802 2.6963-2.858 1.2709.3489 2.3024.2107 3.2894 0 1.3756-.2937 2.6285 1.1662 2.4266 3.1277" fill="none"/><path d="m170.2037 289.8353c19.5199 14.1798 32.6801 40.2225 34.62 61.3669-24.1657-4.7086-34.7938 6.5561-44.2556 16.2931-9.0641-21.9238-12.2813-44.992-4.2901-70.1643l8.2636 8.5202c1.14-4.6735 3.7747-12.8413 5.6621-16.0158z" fill="#eac102"/><path d="m167.6232 295.7739c-1.2412 3.4267-2.406 7.3537-3.0729 10.088l-4.373 10.5779c3.9727-.7342 8.2751-1.4539 12.5986-2.104-1.6405-5.9788-3.3578-12.1831-5.1526-18.5618z" fill="#e5e5e5"/><path d="m164.5416 305.8511c-2.9552 11.9465-4.7736 25.881-7.4949 26.1371-3.2222.3033-4.7239-22.3277-.7687-34.6573 3.1844 2.4985 5.9806 5.3745 8.2636 8.5202z" fill="#e5e5e5"/><path d="m196.5523 322.6855c-2.9027.2408-6.162.5582-9.6844.9933 2.2415 8.2359 4.5063 16.4646 6.7977 24.8319.0261-8.8854 1.6249-17.7414 3.7558-23.9628-.2806-.6193-.5744-1.2462-.8691-1.8624z" fill="#e5e5e5"/><path d="m179.8839 298.3192c1.3893 4.9519 2.7398 9.781 4.0352 14.4956 2.3776-.2907 4.619-.5357 6.7357-.745-3.1537-4.9276-6.7671-9.5829-10.7708-13.7507z" fill="#e5e5e5"/><path d="m175.7638 325.2142c2.1787 8.001 4.3522 15.9315 6.5854 24.0855-2.5159-6.064-9.3297-18.9072-21.2838-21.6227 4.5192-.8598 9.6204-1.6967 14.6984-2.4627z" fill="#e5e5e5"/></g><g><path d="m417.0421 636.722 18.3752 62.978v18.966h-190.836v-18.966l18.376-62.978.0001-331.6518c.0001 1.0683-3.6165 8.867-19.2603 8.867-15.6437 0-19.2603-7.7988-19.2603-8.867v-36.4702h231.1257v36.4702c0 1.0683-3.6166 8.867-19.2604 8.867-15.6437 0-19.2603-7.7988-19.2602-8.867z" fill="#eac102"/><path d="m379.1738 500.3254h60.3144c0 35.3804-20.3532 67.8177-41.7066 72.5939z" fill="#eac102"/><path d="m300.8258 500.3254h-60.3145c0 35.3804 20.3532 67.8177 41.7066 72.5939z" fill="#eac102"/><path d="m417.0421 305.0701c0 1.0683-3.6171 8.8671-19.2609 8.8671-15.6437 0-19.2601-7.7988-19.2603-8.8671-.0003 1.0683-3.6171 8.8671-19.2609 8.8671-15.6437 0-19.2603-7.7988-19.2603-8.8671-.0001 1.0683-3.6167 8.8671-19.2605 8.8671-15.6437 0-19.2603-7.7988-19.2602-8.8671 0 1.0683-3.6166 8.8671-19.2604 8.8671-15.6437 0-19.2613-7.7988-19.2613-8.8671" fill="none"/><path d="m435.4173 699.7h-190.836" fill="none"/><path d="m417.0421 636.722h-154.0848" fill="none"/><path d="m262.9573 268.5999v36.4703" fill="none"/><path d="m417.0421 268.5999v36.4703" fill="none"/><path d="m301.479 268.5999v36.4703" fill="none"/><path d="m339.9997 268.5999v36.4703" fill="none"/><path d="m378.5209 268.5999v36.4703" fill="none"/><path d="m255.3821 500.3254c-3.7175 29.7855 6.8077 48.0977 23.7271 61.259" fill="none"/><path d="m264.7388 532.1489c3.0129 9.3969 8.1604 17.0743 14.7678 23.5756" fill="none"/><path d="m424.6174 500.3254c3.7175 29.7855-6.8077 48.0977-23.7271 61.259" fill="none"/><path d="m415.2608 532.1489c-3.0129 9.3969-8.1605 17.0743-14.7678 23.5756" fill="none"/></g><g><path d="m475.1757 351.2019c-1.7948 1.6107.7116 13.2553-1.6361 16.2911-2.0944 2.7081-1.6226 6.0881-1.3574 7.957.4619 3.2549.7394 6.1666 1.248 8.7738.8305 4.2579 1.8742 7.8397 3.2447 11.6916l24.6007-2.8673c3.5823-4.8332 8.1663-8.4143 13.3734-11.2164l-3.2355-28.9039-27.7233-6.5604z" fill="#ffb380"/><path d="m503.4064 350.8209c.7801 5.6822 1.4934 8.7934-.2974 10.4114-2.4206 2.1872-1.518 4.794-1.4021 7.1181.5099 10.2219-2.4096 16.607-6.5604 17.6428-2.3267.5806-7.3692-4.2253-10.9114-4.1615-6.0316.1086-8.1306 4.3466-10.8051 2.3922-1.0299-.7526-1.4628.8231-1.4898 1.5983-.1103 3.1626.1856 8.0878 1.2942 11.2164.9231 2.6052 5.9008 10.8421 10.4615 11.1086 6.005.3509 13.9549-3.2576 18.5557-9.0594 2.0688-2.6089 2.162-17.7789 4.7847-25.6314 1.0626-3.1817 4.9347-3.2941 5.0243.7534.0174.7869.0655 1.5251.1372 2.2429.4405 4.4126 1.8271 7.5611 3.6768 9.6974-.6281-8.2216-.8952-18.3949 1.4739-24.4308z" fill="#e5e5e5"/><path d="m512.1978 376.4526c.3654 4.0798-1.9098 5.1253-3.2109 5.2712" fill="none"/><path d="m499.1416 364.8772c-.7235-1.0256-2.3002-2.7913-4.7282-2.8979-1.2108-.0531-3.2487-.4689-5.2621-.9914-1.187-.3081-2.0882.7174-2.3641 1.6015" fill="none"/><path d="m482.6714 362.2568c-.1712-.9601-1.5615-1.8418-2.9659-1.456-1.6417.4511-2.8747 1.7133-4.9388 1.5061" fill="none"/><path d="m497.3113 369.3004c-2.6862-2.2068-5.6535-2.8675-9.1514-.6101" fill="none"/><path d="m483.8892 367.0126c-.8645 4.3308-2.5882 7.5632-3.1813 10.4548-.2328 1.1347.4864 2.4765 1.2748 2.5097 2.2343.0943 3.7759 1.3456 5.1095 1.0677 1.6888-.3519 2.0701-2.2315 1.3727-3.3555" fill="none"/><path d="m482.4784 368.1946c-1.9227-.9736-5.5958-1.5373-8.8082-.7245" fill="none"/><path d="m491.0568 369.321c0 .953.6399 1.7256 1.429 1.7256.7893 0 1.429-.7726 1.429-1.7256s-.6398-1.7256-1.429-1.7256-1.429.7726-1.429 1.7256z"/><path d="m476.0117 369.2671c0 .953.6399 1.7256 1.429 1.7256.7893 0 1.429-.7726 1.429-1.7256s-.6398-1.7256-1.429-1.7256-1.429.7726-1.429 1.7256z"/><path d="m488.0639 390.4058c.0606-1.184-.43-3.4802-2.6963-2.858-1.2709.3489-2.3024.2107-3.2894 0-1.3756-.2937-2.6285 1.1662-2.4266 3.1277" fill="none"/><path d="m509.7958 289.8353c-19.5199 14.1798-32.6801 40.2225-34.6199 61.3669 24.1657-4.7086 34.7938 6.5561 44.2556 16.2931 9.0641-21.9238 12.2813-44.992 4.2901-70.1643l-8.2636 8.5202c-1.14-4.6735-3.7747-12.8413-5.6621-16.0158z" fill="#eac102"/><path d="m512.3763 295.7739c1.2413 3.4267 2.406 7.3537 3.073 10.088l4.373 10.5779c-3.9727-.7342-8.2751-1.4539-12.5986-2.104 1.6405-5.9788 3.3578-12.1831 5.1526-18.5618z" fill="#e5e5e5"/><path d="m515.4579 305.8511c2.9552 11.9465 4.7736 25.881 7.4949 26.1371 3.2222.3033 4.724-22.3277.7687-34.6573-3.1844 2.4985-5.9806 5.3745-8.2636 8.5202z" fill="#e5e5e5"/><path d="m483.4472 322.6855c2.9027.2408 6.162.5582 9.6844.9933-2.2415 8.2359-4.5063 16.4646-6.7977 24.8319-.0261-8.8854-1.6249-17.7414-3.7558-23.9628.2806-.6193.5744-1.2462.8691-1.8624z" fill="#e5e5e5"/><path d="m500.1156 298.3192c-1.3893 4.9519-2.7398 9.781-4.0352 14.4956-2.3776-.2907-4.6189-.5357-6.7356-.745 3.1537-4.9276 6.7671-9.5829 10.7708-13.7507z" fill="#e5e5e5"/><path d="m504.2357 325.2142c-2.1787 8.001-4.3522 15.9315-6.5854 24.0855 2.516-6.064 9.3297-18.9072 21.2838-21.6227-4.5192-.8598-9.6204-1.6967-14.6984-2.4627z" fill="#e5e5e5"/></g><g><path d="m174.6899 512.8002c4.0196.5993 6.3282 3.3522 10.7 5.6071 2.2595 1.1654 6.225-.507 3.3641-2.6254-4.8216-3.5703-8.8209-7.3596-15.3717-8.8585z" fill="#ffb380"/><path d="m231.7245 733.3466c0 2.9834-2.4185 5.4019-5.4019 5.4019s-5.4019-2.4185-5.4019-5.4019c0-1.5251.6257-2.8665 1.6421-3.8488l-74.3749-336.6024c-2.9082-13.1616-8.3499-21.8772-20.4034-25.89-5.6588-1.8839-10.2138-6.6344-11.5941-12.8817-2.09-9.459 3.4262-18.2113 12.8852-20.3013s18.8213 3.1212 20.9113 12.5802c1.101 4.9831.5609 9.1272-2.1386 13.0117-.7335 1.0555-2.5284 2.2166-3.8824 2.5158-2.8328.6259-5.5436-.7419-6.1695-3.5748s1.1631-5.6368 3.9959-6.2627c.9194-.2031 1.8395-.135 2.6955.1201.324-1.4792.335-3.0253-.0112-4.5927-1.3085-5.9222-7.1702-8.8997-13.0923-7.5912-5.9222 1.3085-9.2047 6.5601-7.8962 12.4823.8639 3.9099 3.7235 6.8563 7.2606 8.0486 15.3145 5.1622 20.0321 17.1774 23.1049 31.0837l74.3961 336.6839c2.0252.7794 3.4747 2.7193 3.4747 5.0191z" fill="#eac102"/><path d="m145.9568 466.0649c-10.8705 10.1773-19.5965 27.1198-21.7584 44.5049 6.2568 7.152 15.2815 13.7543 21.3183 16.1724 2.3485 4.2308 7.1912 7.8625 10.7471 9.9375 2.4125 1.4078 5.068-3.7928 5.1824-12.2971l4.1274-18.0939c1.4857-2.3885-9.104-6.3716-24.8465-23.096 2.1755-6.8249 4.3993-12.2036 5.2296-17.1278z" fill="#e5e5e5"/><path d="m165.5736 506.2886c-5.2199 2.761-9.2201 8.923-10.1663 13.9086 4.9535 4.0522 5.8679 6.3851 8.2175 9.3895 4.7529 6.0774 12.8616 9.8803 16.9325 7.4956 2.4768.6781 4.0847.8721 5.6082.9167 2.5857.0757 4.1413-1.3177 2.0993-2.6963 3.0737.6831 5.709-1.0926 2.4844-2.8041 2.9314.7982 4.0969-2.3535.6248-3.3695-10.0423-2.9387-14.9265-8.3646-16.6841-16.329l-1.3076-5.8769c-2.2496-.5147-4.8328-.7618-7.8087-.6347z" fill="#ffb380"/><path d="m190.7492 532.4986c-7.7063-2.1111-9.8709-3.3605-13.7509-6.1475" fill="none"/><path d="m188.2648 535.3027c-6.796-1.3949-10.2707-2.8456-13.9628-5.7161" fill="none"/><path d="m180.5574 537.0823c-3.2699-.9603-7.1515-2.5294-9.1673-4.5836" fill="none"/><path d="m155.4074 520.1972c-1.9489 9.0836-1.1842 15.28.8565 16.4824" fill="none"/><path d="m145.0149 522.3577c-.01 1.2244-.003 3.4171.5018 4.3844" fill="none"/><path d="m146.6825 391.7861 8.0694-1.783c.825-.1823 1.6359.3352 1.8182 1.1603s-.3351 1.6361-1.1601 1.8184l-8.0694 1.783c-.8251.1823-1.6361-.3352-1.8184-1.1602-.1823-.8251.3352-1.6361 1.1603-1.8184z" fill="#eac102"/><path d="m140.7272 483.1926c-.893-.9913-1.6227-1.8193-2.3435-2.6384" fill="none"/></g><g><path d="m265.7341 501.7897c-10.1499 29.2058-.0367 51.6239 18.708 40.4359l55.5576 20.3015 55.5577-20.3015c18.7448 11.188 28.8579-11.2301 18.708-40.4359l-74.2658-87.0211z" fill="#ed1c24"/><path d="m339.9996 462.9003v36.8412" fill="none"/><path d="m284.4421 542.2256c10.4256-6.0315 16.6078-20.4068 14.883-36.3252" fill="none"/><path d="m267.9052 502.3472c-2.8946 44.9369 28.3572 42.5495 28.0643 5.4071" fill="none"/><path d="m314.8506 522.3268c3.2123 5.5236 7.2276 10.2505 12.0792 14.4197" fill="none"/><path d="m317.6547 505.0669v21.5476" fill="none"/><path d="m395.5574 542.2256c-10.4256-6.0315-16.6078-20.4068-14.8829-36.3252" fill="none"/><path d="m412.0942 502.3472c2.8946 44.9369-28.3571 42.5495-28.0643 5.4071" fill="none"/><path d="m365.1489 522.3268c-3.2123 5.5236-7.2276 10.2505-12.0792 14.4197" fill="none"/><path d="m362.3447 505.0669v21.5476" fill="none"/><path d="m370.2446 667.5766c-1.1468 6.3618 2.2677 6.8015 4.3208 6.0797.594-.2088 1.3319-.4457 2.1833-.6831 22.0446 28.9528 34.0059 14.2865 24.9585 3.737 2.2134.1875 3.4331-2.2403 2.5632-5.092 2.1829.0101 4.8768.002 6.6109-.056 1.6661-.0555 2.0827-1.5443 1.7565-2.933-8.5274-36.2984-3.3511-80.7376-3.3511-97.8508 0-14.4184-6.6537-29.6784-17.2743-31.0652-19.0834-2.4919-21.4553 14.8513-52.0128 14.8513s-32.9293-17.3432-52.0126-14.8513c-10.6206 1.3868-17.2742 16.6469-17.2742 31.0652 0 17.1133 5.1762 61.5525-3.3511 97.8508-.3262 1.3887.0903 2.8775 1.7565 2.933 1.7341.0577 4.428.0658 6.6109.056-.8698 2.8516.3498 5.2794 2.5632 5.092-9.0473 10.5495 2.9139 25.2158 24.9585-3.737.8514.2374 1.5893.4743 2.1833.6831 2.0531.7218 5.4676.2821 4.3208-6.0797 10.2082-2.9687 20.2763-4.2523 30.2447-4.2523s20.0367 1.2836 30.2449 4.2523z" fill="#ed1c24"/><path d="m309.7549 667.5766c-1.1911-6.166-2.3484-22.5345-1.3411-33.1417" fill="none"/><path d="m318.3732 572.2494c-12.0797-14.1372-11.3458-35.0686-30.3861-32.5364" fill="none"/><path d="m270.7128 570.7783c0 17.1254 14.0602 71.1905 5.0163 100.8399" fill="none"/><path d="m278.2923 676.7101c.7639-.0647 1.6462-.4409 2.6019-1.2188 6.8487-5.5744 16.9198-4.0343 22.3566-2.5182" fill="none"/><path d="m370.2446 667.5766c1.1911-6.166 2.3484-22.5345 1.3411-33.1417" fill="none"/><path d="m361.6263 572.2494c12.0797-14.1372 11.3458-35.0686 30.3862-32.5364" fill="none"/><path d="m409.2867 570.7783c0 17.1254-14.0602 71.1905-5.0163 100.8399" fill="none"/><path d="m401.7071 676.7101c-.7639-.0647-1.6462-.4409-2.6018-1.2188-6.8487-5.5744-16.9198-4.0343-22.3567-2.5182" fill="none"/></g><g><path d="m317.2036 420.0107c-7.9317-21.2957-2.0808-20.7237-.9706-36.6691.5577-8.0104-1.1708-13.5956-.2885-26.4869l24.0551-8.5645 24.0551 8.5645c.8822 12.8913-.8463 18.4766-.2885 26.4869 1.1102 15.9455 6.9611 15.3735-.9706 36.6691z" fill="#c87137"/><path d="m354.7067 355.0848c2.148 6.122.1381 19.1438.9168 32.6707-1.3097 2.4133-4.4949 6.4769-6.7407 8.3124-2.4218-2.9481-6.8064-6.9024-8.8833-6.9024s-6.4615 3.9544-8.8833 6.9024c-2.2458-1.8355-5.4309-5.8991-6.7407-8.3124.7787-13.5269-1.2312-26.5487.9168-32.6707l14.7071-3.3434z" fill="#ffb380"/><path d="m355.6235 387.7555c.3958 6.8748 1.5189 13.8879 4.2601 20.176" fill="none"/><path d="m364.0552 356.8543c0-3.2509 1.1768-7.4031 2.6759-11.2788l-3.0883.005c-1.2271 1.4771-3.0236 2.826-4.8193 2.826-1.7659 0-4.5273-1.2706-4.3098-5.5363l-.4354-4.5132-3.0649 4.0098c-.5666 2.9597-2.7357 4.2908-4.8057 4.2908-2.3823 0-4.383-2.4458-4.383-5.6516l-1.825-4.4488-1.8251 4.4488c0 3.2058-2.0008 5.6516-4.383 5.6516-2.07 0-4.2391-1.3311-4.8057-4.2908l-3.0649-4.0098-.4354 4.5132c.2174 4.2657-2.5439 5.5363-4.3098 5.5363-1.7956 0-3.5922-1.3489-4.8193-2.826l-3.0883-.005c1.4991 3.8756 2.676 8.0279 2.676 11.2788 5.9023-1.4206 17.7203-1.5098 24.0551-1.5098s18.1533.0892 24.0556 1.5098z" fill="#eac102"/><path d="m324.5434 331.9177c-1.6057.3637-2.6095 2.005-2.2264 3.6962.2394 1.057.9623 1.875 1.8603 2.2502-.4251-.1072-.869-.1154-1.3207-.0131-1.6057.3637-2.6095 2.005-2.2264 3.6962s2.0035 2.7728 3.6094 2.4091c1.5107-.3422 2.4645-1.8411 2.2548-3.4251.4935 1.5197 2.0001 2.4613 3.5107 2.1192 1.6058-.3637 2.6021-2.038 2.219-3.7292-.3831-1.6913-1.9961-2.7398-3.6018-2.3761-.4516.1023-.8488.3011-1.1862.5809.6488-.7255.9486-1.7751.7091-2.8321-.383-1.6912-1.996-2.7398-3.6018-2.3761z" fill="#eac102"/><path d="m317.2447 346.431c1.5106-.6549 2.4898-2.6304 1.8002-4.2214-.6895-1.591-2.4623-2.331-3.9731-1.6762-.4247.1842-.7755.4385-1.0553.776.5032-.8331.6176-1.8923.1861-2.8867-.5172-1.1933-1.6545-1.9204-2.8246-1.9245-.3901-.001-.8019.0846-1.1795.2483-.1852.0803-.3373.1672-.4966.2794-.1125.0793-.2117.1863-.3104.2794 1.2872 2.2997 2.7037 5.2624 3.8769 8.2701.9425 1.0442 2.7327 1.3946 3.9763.8556z" fill="#eac102"/><path d="m342.9559 341.6287c1.6465 0 2.988-1.4128 2.988-3.1469s-1.3415-3.1131-2.988-3.1131c-.4631 0-.8941.1061-1.2851.3046.7929-.5643 1.3173-1.5217 1.3173-2.6055 0-1.7341-1.342-3.1131-2.9885-3.1131s-2.9881 1.379-2.9881 3.1131c0 1.0838.5244 2.0412 1.3173 2.6055-.391-.1984-.822-.3046-1.2851-.3046-1.6465 0-2.988 1.379-2.988 3.1131s1.3415 3.1469 2.988 3.1469c1.549 0 2.8106-1.2512 2.9561-2.8424.1455 1.5912 1.4071 2.8424 2.9561 2.8424z" fill="#eac102"/><path d="m355.456 331.9177c1.6057.3637 2.6095 2.005 2.2264 3.6962-.2394 1.057-.9623 1.875-1.8603 2.2502.4251-.1072.869-.1154 1.3207-.0131 1.6057.3637 2.6095 2.005 2.2264 3.6962-.383 1.6912-2.0035 2.7728-3.6093 2.4091-1.5108-.3422-2.4646-1.8411-2.2549-3.4251-.4934 1.5197-2.0001 2.4613-3.5107 2.1192-1.6058-.3637-2.6021-2.038-2.219-3.7292.3831-1.6913 1.9961-2.7398 3.6018-2.3761.4516.1023.8488.3011 1.1862.5809-.6487-.7255-.9486-1.7751-.7091-2.8321.383-1.6912 1.996-2.7398 3.6018-2.3761z" fill="#eac102"/><path d="m362.7548 346.431c-1.5106-.6549-2.4898-2.6304-1.8002-4.2214.6895-1.591 2.4623-2.331 3.9731-1.6762.4247.1842.7755.4385 1.0553.776-.5032-.8331-.6176-1.8923-.1861-2.8867.5172-1.1933 1.6545-1.9204 2.8246-1.9245.3901-.001.8019.0846 1.1795.2483.1851.0803.3373.1672.4966.2794.1125.0793.2117.1863.3104.2794-1.2872 2.2997-2.7037 5.2624-3.8769 8.2701-.9425 1.0442-2.7327 1.3946-3.9763.8556z" fill="#eac102"/><path d="m324.3757 387.7555c-.3958 6.8748-1.5189 13.8879-4.2601 20.176" fill="none"/><path d="m327.2264 367.8476c.6143-1.5114 7.9723.699 8.2902-1.2926" fill="none"/><path d="m328.0966 370.4534c2.4217-.5818 5.5235-.8736 8.0348.3775" fill="none"/><path d="m333.543 372.3947c0 .953-.6399 1.7256-1.429 1.7256-.7893 0-1.429-.7726-1.429-1.7256s.6398-1.7256 1.429-1.7256 1.429.7726 1.429 1.7256z"/><path d="m335.9472 372.9694c-1.6564 2.5081-6.104 1.914-7.635.5578" fill="none"/><path d="m339.9998 360.6066v4.5757" fill="none"/><path d="m339.9998 373.266v10.6004" fill="none"/><path d="m337.4069 384.629c-2.546.4648-2.1394 4.1612 0 3.6606 1.098-.2569 1.9386-.3813 2.5929-.3813s1.4949.1244 2.5928.3813c2.1394.5007 2.546-3.1958 0-3.6606" fill="none"/><path d="m337.2496 396.0679s1.1864.2157 2.7502.2157 2.7502-.2157 2.7502-.2157" fill="none"/><path d="m352.7728 367.8476c-.6143-1.5114-7.9723.699-8.2902-1.2926" fill="none"/><path d="m351.9026 370.4534c-2.4217-.5818-5.5235-.8736-8.0348.3775" fill="none"/><path d="m344.0519 372.9694c1.6564 2.5081 6.104 1.914 7.635.5578" fill="none"/><path d="m346.4562 372.3947c0 .953.6399 1.7256 1.429 1.7256.7893 0 1.429-.7726 1.429-1.7256s-.6398-1.7256-1.429-1.7256-1.429.7726-1.429 1.7256z"/></g><g><path d="m336.5828 443.5136-2.6672-32.1307c-5.4984-4.0696-9.2066-9.0336-12.5244-9.0336-3.9731 0-15.4415 7.0789-25.7076 11.9845-8.9251 4.2647-12.4238 13.1598-14.2998 20.7026-2.0851 8.3836-12.2986 38.6115-14.516 62.1717l8.9674 8.7256 30.1615-3.4204 18.9261-20.968z" fill="#0071bc"/><path d="m266.8678 497.2082c-3.362 1.1729-4.0091 6.1387 2.3886 9.157 9.7701 4.6095 32.6711 7.386 47.9012-9.6129 14.0563-15.6889 22.8422-29.3848 22.8422-81.9838-2.5255-1.1062-4.1845-1.9797-6.0841-3.3856 0 33.5838-3.6145 53.9426-12.6057 67.5729-19.9028 30.1718-41.0571 25.1056-54.4421 18.2524z" fill="#eac102"/><path d="m343.4167 443.5136 2.6672-32.1307c5.4984-4.0696 9.2066-9.0336 12.5244-9.0336 3.9731 0 15.4415 7.0789 25.7076 11.9845 8.9251 4.2647 12.4238 13.1598 14.2998 20.7026 2.0851 8.3836 12.2985 38.6115 14.516 62.1717l-8.9675 8.7256-30.1615-3.4204-18.9261-20.968z" fill="#0071bc"/><path d="m413.1318 497.2082c3.3619 1.1729 4.0091 6.1387-2.3886 9.157-9.7701 4.6095-32.6711 7.386-47.9012-9.6129-14.0563-15.6889-22.8423-29.3848-22.8423-81.9838 2.5255-1.1062 4.1847-1.9797 6.0843-3.3856 0 33.5838 3.6145 53.9426 12.6057 67.5729 19.9028 30.1718 41.0571 25.1056 54.4422 18.2524z" fill="#eac102"/></g><g><path d="m419.2302 490.437c0 12.0915-9.8021 21.8936-21.8937 21.8936-12.0914 0-21.8937-9.8021-21.8937-21.8936s9.8022-21.8936 21.8937-21.8936 21.8937 9.8021 21.8937 21.8936z" fill="#0071bc"/><path d="m397.7232 516.3853-7.7743 1.0144c2.4894 18.7025 13.7669 15.193 14.7847.5408z" fill="#ffb380"/><path d="m404.7335 517.9404c3.3551-2.4897 7.602-5.0517 9.4777-9.5371 1.119-2.676-.4912-4.9131-2.5307-2.2464-3.3567 4.3891-5.433 3.9017-7.291 5.1429-.1313-3.0017.1005-6.0234.6044-9.5386.4328-3.0191-3.2006-3.7252-3.5143-1.3258-.4886 3.7365-2.2213 7.3399-2.9568 13.405-1.5945-5.5828-.8661-11.1738-.6471-15.9619.0996-2.1784-3.0955-2.5563-3.5274-.0501-.6624 3.8444-1.8472 8.5132-2.0295 13.0403-1.4214-3.4712-2.6364-7.2797-2.6397-11.696 0-2.8804-3.0419-2.5141-3.3881-.2026-.4904 3.2748-.1067 6.9354.2291 10.4146-2.3904-2.3402-4.6483-4.0096-5.2531-5.4666-.991-2.3873-4.1678-1.4303-2.9119 1.2942 3.8837 8.425 9.0601 9.8333 11.5938 12.1871 2.9642 2.7537 9.3014 4.6098 14.7846.5408z" fill="#ffb380"/><path d="m392.3188 510.8689c.0119.9366.353 1.8953.6181 2.4101" fill="none"/><path d="m404.3895 511.2999c.0735 1.0744-.4208 2.3496-.5805 2.8597" fill="none"/><path d="m393.5652 444.579v7.9772h-7.9772v7.5427h7.9772v12.2918h7.5427v-12.2918h7.9772v-7.5427h-7.9772v-7.9772z" fill="#eac102" fill-rule="evenodd"/><path d="m397.3491 468.5418c-1.4363 0-2.8624.1395-4.2214.4035v17.2582h-17.2582c-.268 1.3686-.4347 2.7743-.4347 4.2214 0 1.4242.1438 2.8419.4036 4.1904h42.9902c.2602-1.3498.4035-2.7647.4035-4.1904 0-1.4467-.1358-2.8531-.4035-4.2214h-17.2892v-17.2582c-1.359-.264-2.7542-.4035-4.1903-.4035z" fill="#eac102" fill-rule="evenodd"/></g><g><path d="m288.6157 486.591v-136.9661c0-9.5176-3.5439-18.6273-6.5585-23.1836-3.0146 4.5562-6.5585 13.6659-6.5585 23.1836v136.9661z" fill="#e5e5e5"/><path d="m282.0572 349.6249v134.5257" fill="none"/><path d="m299.9632 474.0711c-.0898-.4136-.1371-.8431-.1371-1.2835 0-3.3273 2.6973-6.0247 6.0247-6.0247 3.3273 0 6.0246 2.6973 6.0246 6.0247 0 2.7854-1.8901 5.1292-4.4578 5.8189-4.1432 5.6656-13.5196 12.2551-25.3604 12.2551s-21.2172-6.5895-25.3605-12.2551c-2.5677-.6897-4.4578-3.0335-4.4578-5.8189 0-3.3273 2.6973-6.0247 6.0247-6.0247s6.0247 2.6973 6.0247 6.0247c0 .4404-.0473.8699-.137 1.2835 2.6272 3.8915 8.3825 8.2492 17.906 8.2492s15.2788-4.3577 17.906-8.2492z" fill="#eac102"/><path d="m264.1513 474.0709c-.5315 2.4499-2.5533 4.3443-5.0686 4.6862" fill="none"/><path d="m299.9631 474.0709c.5315 2.4499 2.5533 4.3443 5.0686 4.6862" fill="none"/><path d="m274.8886 513.6639c.2585 22.6456 14.5697 21.1411 14.7185-.4576l-7.4852-2.3174z" fill="#ffb380"/><path d="m287.243 514.4265c0 2.864-2.3217 5.1858-5.1858 5.1858s-5.1858-2.3217-5.1858-5.1858 2.3218-5.1858 5.1858-5.1858c2.8641 0 5.1858 2.3218 5.1858 5.1858z" fill="#eac102"/><path d="m296.013 500.5469c0 2.3586-1.912 4.2707-4.2707 4.2707-2.3586 0-4.2707-1.912-4.2707-4.2707s1.912-4.2707 4.2707-4.2707 4.2707 1.9121 4.2707 4.2707z" fill="#808080"/><path d="m290.1028 508.5162c3.3324-.7372 2.7484-4.8299.305-5.2621 3.0615-.3305 3.5875-5.3892-.4957-5.7959 3.3842-.0254 3.944-5.3449.3813-5.7578-3.863-.4477-10.3213-.9758-15.4049-.2288-2.5416.3735-2.7002 3.9501-1.754 5.4908-1.9573 1.4288-1.1288 4.9515-.1525 5.6434-1.5174 2.2527-.8525 4.167.3051 5.4908-1.1303 1.4588-.9432 5.0544 1.6015 5.5671 3.1243.6295 11.4917.9219 14.7185-.4576 2.549-1.0897 2.546-4.5065.4957-4.6901z" fill="#ffb380"/><path d="m289.9121 497.4583c-4.0419.064-8.9095-.1121-13.184-.5311" fill="none"/><path d="m290.4078 503.2541c-4.5503.3108-9.6725-.0493-13.3839-.1906" fill="none"/><path d="m290.1028 508.5162c-3.1137.6362-10.0203.7369-13.4602.2708" fill="none"/></g><g><path d="m202.2353 402.9703-37.8929 87.5291 32.7865 11.4322 35.9516-84.5093z" fill="#0071bc"/><path d="m204.6907 408.7943-34.1853 79.0071 32.72 11.4025 32.0121-75.9577z" fill="#eac102"/><path d="m214.9616 407.0687-39.4732 90.1629 32.7865 11.4321 37.5319-87.1431z" fill="#0071bc"/><path d="m215.5798 447.7761c-.3453.0156-.6596.1278-.9002.3725l-6.0217 6.2701c-.678 14.0679-1.6247 30.0956 1.7722 31.2835 1.8568.6493 5.4746 1.1052 7.0121.6255 3.2849 2.2775 8.887 3.4909 13.114 4.3007 2.0832-8.4405 2.7526-15.4863.81-29.7179-3.7355-1.899-12.4489-13.2853-15.7863-13.1343z" fill="#e5e5e5"/><path d="m214.3675 466.9979c-5.1119-3.5009-10.8491-6.4217-19.0347-6.759-5.2266-.2154-9.8725-2.977-13.3734-7.5495-1.57-2.0506-1.9908-4.4301-1.3122-5.4749-1.8968-2.0797-2.0641-5.6318-.1984-5.8834-1.9848-2.5669-2.2789-6.5627.7573-6.0033-2.2358-5.4854 5.4917-4.3413 8.1825-3.0221l-1.3913 3.1871c4.5103 2.6506 11.3133 3.8909 11.8653 2.4211.6396-1.7032-3.3358-4.2926-4.9611-6.471-1.5168-2.0329.0343-4.2048 1.9413-2.5884 4.4613 3.7815 9.1197 5.9374 11.8635 11.8636 2.1702 4.6871 3.9181 6.1822 5.9754 7.4411.2519 5.8617-.1625 14.4805-.3142 18.8388z" fill="#ffb380"/><path d="m187.9973 435.4928-1.8201-1.0648" fill="none"/><path d="m181.2061 435.3277c1.1943 2.5729 5.2886 5.4383 8.0025 7.1458" fill="none"/><path d="m180.4488 441.331c1.1804 1.7801 4.2576 4.3477 6.6302 5.6779" fill="none"/><path d="m180.6472 447.2145c1.3727 1.5827 3.5108 3.3 5.4728 4.5249" fill="none"/><path d="m214.3675 466.9979c-.2655 7.0036-.5143 20.009-3.9375 18.7043" fill="none"/><path d="m217.4393 486.3152c1.4031-.2926 2.7866-5.2254 3.4779-7.6763" fill="none"/></g><g><path d="m505.3096 512.8002c-4.0196.5993-6.3282 3.3522-10.7 5.6071-2.2595 1.1654-6.225-.507-3.3641-2.6254 4.8216-3.5703 8.8209-7.3596 15.3717-8.8585z" fill="#ffb380"/><path d="m448.275 733.3466c0 2.9834 2.4185 5.4019 5.4019 5.4019s5.4019-2.4185 5.4019-5.4019c0-1.5251-.6257-2.8665-1.6421-3.8488l74.3749-336.6024c2.9082-13.1616 8.3499-21.8772 20.4034-25.89 5.6588-1.8839 10.2138-6.6344 11.5942-12.8817 2.09-9.459-3.4262-18.2113-12.8852-20.3013s-18.8213 3.1212-20.9113 12.5802c-1.101 4.9831-.5609 9.1272 2.1386 13.0117.7335 1.0555 2.5284 2.2166 3.8824 2.5158 2.8327.6259 5.5436-.7419 6.1695-3.5748s-1.1631-5.6368-3.9959-6.2627c-.9194-.2031-1.8394-.135-2.6955.1201-.324-1.4792-.335-3.0253.0112-4.5927 1.3085-5.9222 7.1702-8.8997 13.0923-7.5912 5.9222 1.3085 9.2047 6.5601 7.8962 12.4823-.8639 3.9099-3.7235 6.8563-7.2606 8.0486-15.3145 5.1622-20.0321 17.1774-23.1049 31.0837l-74.3961 336.6839c-2.0252.7794-3.4747 2.7193-3.4747 5.0191z" fill="#eac102"/><path d="m534.0427 466.0649c10.8705 10.1773 19.5965 27.1198 21.7583 44.5049-6.2568 7.152-15.2815 13.7543-21.3183 16.1724-2.3485 4.2308-7.1912 7.8625-10.7471 9.9375-2.4125 1.4078-5.068-3.7928-5.1824-12.2971l-4.1274-18.0939c-1.4857-2.3885 9.104-6.3716 24.8465-23.096-2.1755-6.8249-4.3992-12.2036-5.2296-17.1278z" fill="#e5e5e5"/><path d="m514.4259 506.2886c5.2199 2.761 9.2201 8.923 10.1663 13.9086-4.9536 4.0522-5.8679 6.3851-8.2175 9.3895-4.7529 6.0774-12.8616 9.8803-16.9325 7.4956-2.4768.6781-4.0847.8721-5.6082.9167-2.5857.0757-4.1413-1.3177-2.0992-2.6963-3.0737.6831-5.709-1.0926-2.4844-2.8041-2.9314.7982-4.0969-2.3535-.6248-3.3695 10.0423-2.9387 14.9265-8.3646 16.6841-16.329l1.3076-5.8769c2.2496-.5147 4.8328-.7618 7.8087-.6347z" fill="#ffb380"/><path d="m489.2503 532.4986c7.7063-2.1111 9.8709-3.3605 13.7509-6.1475" fill="none"/><path d="m491.7347 535.3027c6.796-1.3949 10.2707-2.8456 13.9628-5.7161" fill="none"/><path d="m499.4421 537.0823c3.2699-.9603 7.1515-2.5294 9.1673-4.5836" fill="none"/><path d="m524.5921 520.1972c1.9489 9.0836 1.1842 15.28-.8565 16.4824" fill="none"/><path d="m534.9846 522.3577c.01 1.2244.003 3.4171-.5018 4.3844" fill="none"/><path d="m533.317 391.7861-8.0694-1.783c-.825-.1823-1.6359.3352-1.8182 1.1603s.3351 1.6361 1.1601 1.8184l8.0694 1.783c.8251.1823 1.6361-.3352 1.8184-1.1602.1823-.8251-.3352-1.6361-1.1603-1.8184z" fill="#eac102"/><path d="m539.2723 483.1926c.893-.9913 1.6228-1.8193 2.3435-2.6384" fill="none"/></g><g><path d="m477.7642 402.9703 37.8929 87.5291-32.7865 11.4322-35.9516-84.5093z" fill="#0071bc"/><path d="m475.3088 408.7943 34.1853 79.0071-32.72 11.4025-32.0121-75.9577z" fill="#eac102"/><path d="m465.0379 407.0687 39.4732 90.1629-32.7865 11.4321-37.5319-87.1431z" fill="#0071bc"/><path d="m464.4197 447.7761c.3453.0156.6596.1278.9002.3725l6.0217 6.2701c.678 14.0679 1.6247 30.0956-1.7722 31.2835-1.8568.6493-5.4746 1.1052-7.0121.6255-3.2849 2.2775-8.887 3.4909-13.1139 4.3007-2.0832-8.4405-2.7526-15.4863-.81-29.7179 3.7355-1.899 12.4489-13.2853 15.7863-13.1343z" fill="#e5e5e5"/><path d="m465.632 466.9979c5.1119-3.5009 10.8491-6.4217 19.0347-6.759 5.2266-.2154 9.8725-2.977 13.3734-7.5495 1.57-2.0506 1.9908-4.4301 1.3122-5.4749 1.8968-2.0797 2.0641-5.6318.1984-5.8834 1.9848-2.5669 2.2789-6.5627-.7573-6.0033 2.2358-5.4854-5.4917-4.3413-8.1825-3.0221l1.3913 3.1871c-4.5103 2.6506-11.3133 3.8909-11.8653 2.4211-.6396-1.7032 3.3358-4.2926 4.9611-6.471 1.5168-2.0329-.0343-4.2048-1.9413-2.5884-4.4613 3.7815-9.1197 5.9374-11.8635 11.8636-2.1702 4.6871-3.9182 6.1822-5.9754 7.4411-.2519 5.8617.1625 14.4805.3142 18.8388z" fill="#ffb380"/><path d="m492.0022 435.4928 1.8201-1.0648" fill="none"/><path d="m498.7935 435.3277c-1.1943 2.5729-5.2886 5.4383-8.0025 7.1458" fill="none"/><path d="m499.5507 441.331c-1.1804 1.7801-4.2576 4.3477-6.6302 5.6779" fill="none"/><path d="m499.3523 447.2145c-1.3727 1.5827-3.5108 3.3-5.4728 4.5249" fill="none"/><path d="m465.632 466.9979c.2655 7.0036.5143 20.009 3.9375 18.7043" fill="none"/><path d="m462.5602 486.3152c-1.4031-.2926-2.7866-5.2254-3.4779-7.6763" fill="none"/></g></g><path d="m168.9998 751.658c1.58.03 3.164.03 4.75.03 61.793 0 119.088-19.199 166.25-51.988 47.162 32.789 104.457 51.988 166.25 51.988 1.586 0 3.17 0 4.75-.03-44.669 42.066-104.846 67.842-171 67.842s-126.331-25.776-171-67.842z" fill="#0071bc" stroke="#000" stroke-linecap="round" stroke-linejoin="round"/><g stroke="#000" stroke-linecap="round" stroke-linejoin="round"><path d="m348.1553 765.1756c17.6709 28.2945 3.9655 44.3244-9.116 44.3244-10.8172 0-17.3799-9.4979-15.1683-20.5049.2407-6.4882 5.5456-14.6854 14.6658-23.8196zm-14.5429 22.9137c.962-4.8241 4.5767-6.2463 6.7383-10.4708 2.1236 4.5068 3.194 9.0161 2.9298 12.04-.3168 3.625-2.1321 6.5674-5.6381 6.8838-2.6745.2414-4.9245-3.967-4.03-8.4531z" fill="#eac102" fill-rule="evenodd"/><path d="m323.871 788.9951c-.3245 8.7493 6.2527 14.3234 13.2209 14.3234 11.737 0 19.2314-14.0276 3.6977-38.143" fill="none"/><path d="m337.6423 796.5423c-6.5442.4982-12.7178-8.1089-.3273-26.1082.9933 1.8612 1.9956 4.832 3.0357 7.1843" fill="none"/><path d="m331.8442 766.5961c-17.6709-28.2946-3.9655-44.3245 9.116-44.3245 10.8172 0 17.3799 9.4979 15.1683 20.5048-.2407 6.4882-5.5456 14.6855-14.6658 23.8196zm14.5429-22.9137c-.962 4.824-4.5767 6.2463-6.7383 10.4707-2.1236-4.5068-3.194-9.0162-2.9297-12.04.3168-3.625 2.1321-6.5674 5.6381-6.8838 2.6745-.2414 4.9245 3.967 4.03 8.4531z" fill="#eac102" fill-rule="evenodd"/><path d="m356.1285 742.7765c.3245-8.7492-6.2527-14.3233-13.2209-14.3233-11.737 0-19.2314 14.0276-3.6977 38.1429" fill="none"/><path d="m342.3572 735.2294c6.5442-.4982 12.7178 8.1088.3273 26.1082-.9933-1.8612-1.9956-4.8319-3.0357-7.1843" fill="none"/><path d="m331.6983 761.4561c3.6801-1.2079 10.6973-2.3809 15.7879-2.4167 1.5248-.011 2.9035.8267 3.129 2.3709.2254 1.5443-.8072 2.9733-2.3152 3.2042l-15.7879 2.4167c-1.508.2308-2.9035-.8265-3.129-2.3709-.2254-1.5442.8632-2.7275 2.3152-3.2042z" fill="#eac102"/><path d="m348.3012 770.3155c-3.6801 1.208-10.6973 2.3811-15.7879 2.4168-1.5247.011-2.9035-.8266-3.1289-2.3709s.8072-2.9734 2.3152-3.2043l15.7879-2.4167c1.508-.2308 2.9035.8265 3.1289 2.3709s-.8632 2.7276-2.3152 3.2042z" fill="#eac102"/><path d="m252.1657 757.4466v26.9506c0 .9385.5241 1.3609 1.2194 1.6378l3.8862 1.548v2.2636h-14.8086v-2.2636l4.0284-1.548c.8253-.3171 1.2194-.9031 1.2194-1.6378v-31.2099c0-.9204-.4963-1.3883-1.2194-1.6379l-4.0284-1.4293v-2.1143h13.1918l19.7175 29.7192v-24.4477c0-.9422-.5591-1.3346-1.2486-1.6093l-3.8863-1.5479v-2.1143h14.7229v2.1143l-3.9155 1.5479c-.8215.3247-1.2467.8771-1.2467 1.6093l.0002 36.5693h-6.0156z" fill="#eac102"/><path d="m361.1775 787.7247 3.9295-1.3441c.8719-.2983 1.2238-.9154 1.2238-1.6745v-31.5906c0-.9384-.5081-1.399-1.2238-1.6438l-3.9295-1.3441v-2.1219h19.1333c11.5799 0 20.6992 6.852 20.6992 20.981 0 14.1291-9.0255 20.86-20.8986 20.86h-18.9339zm19.2193-1.7936c7.4057.0349 11.331-5.4889 11.331-16.019 0-10.53-4.7279-17.9911-12.7836-17.9911h-4.0155v34.0101z" fill="#eac102"/><path d="m425.0816 789.8466c-12.444 0-19.6883-8.2041-19.6883-20.949 0-12.9666 8.3777-20.8921 19.7448-20.8921 12.4884 0 19.6902 8.1435 19.6902 20.8921 0 13.0811-8.0785 20.949-19.7467 20.949zm.4539-3.658c8.3702-.2372 10.1519-9.8313 10.0146-16.4059-.1604-7.6797-2.4094-18.4304-10.8931-18.0897-8.1318.3265-10.1169 10.011-9.9854 16.2332.1828 8.6485 2.7349 18.4928 10.8639 18.2624z" fill="#eac102"/><path d="m303.5283 789.8466c-12.444 0-19.6883-8.2041-19.6883-20.949 0-12.9666 8.3777-20.8921 19.7448-20.8921 12.4884 0 19.6902 8.1435 19.6902 20.8921 0 13.0811-8.0785 20.949-19.7467 20.949zm.4539-3.658c8.3702-.2372 10.1519-9.8313 10.0146-16.4059-.1604-7.6797-2.4094-18.4304-10.8931-18.0897-8.1318.3265-10.1169 10.011-9.9854 16.2332.1828 8.6485 2.7349 18.4928 10.8639 18.2624z" fill="#eac102"/></g><path d="m91.4998 221.5v348.5c0 137.172 111.328 248.5 248.5 248.5s248.5-111.328 248.5-248.5v-348.5z" fill="none" stroke="#000" stroke-linecap="round" stroke-linejoin="round" stroke-width="3"/></svg>