<?xml version="1.0" encoding="UTF-8"?>
<!-- Creator: CorelDRAW -->
<svg id="Sevilla" width="750" height="500" style="clip-rule:evenodd;fill-rule:evenodd;image-rendering:optimizeQuality;shape-rendering:geometricPrecision;text-rendering:geometricPrecision" version="1.0" viewBox="0 0 750 500" xml:space="preserve" xmlns="http://www.w3.org/2000/svg" xmlns:cc="http://creativecommons.org/ns#" xmlns:dc="http://purl.org/dc/elements/1.1/" xmlns:rdf="http://www.w3.org/1999/02/22-rdf-syntax-ns#"><metadata id="metadata1"><rdf:RDF><cc:Work rdf:about=""><dc:format>image/svg+xml</dc:format><dc:type rdf:resource="http://purl.org/dc/dcmitype/StillImage"/></cc:Work></rdf:RDF></metadata>
 <defs id="defs1"><style id="style1" type="text/css">
   
    @font-face { font-family:"Times New Roman MT Extra Bold";src:url("#FontID0") format(svg)}
    .str0 {stroke:#FFB95C;stroke-width:0.0762}
    .str1 {stroke-width:1.8506}
    .fil0 {fill:#B90609}
    .fil1 {fill:#FFE575}
    .fnt0 {font-weight:800;font-size:41.1759;font-family:'Times New Roman MT Extra Bold'}
   
  </style>
    
    
   </defs>
 
<rect id="_161209056" class="fil0" width="750" height="500" style="clip-rule:evenodd;fill-rule:evenodd;fill:#b81626;image-rendering:optimizeQuality;shape-rendering:geometricPrecision;stroke-width:1.6835"/><g id="g1333"><g id="g1316"><path id="_161208480" class="fil1 str0" d="m352.8652 255.2716c-2.19445-8.82128 39.65016-3.24569 43.14093-10.50457 1.73588-3.89489 0.25692-8.75903-1.6453-9.11883 2.24366 9.07417-38.82117 0.82519-41.42258 9.31013-0.63366 1.83257-1.67066 7.1005-0.0731 10.31327z" style="clip-rule:evenodd;fill-rule:evenodd;fill:#fcdd09;image-rendering:optimizeQuality;shape-rendering:geometricPrecision"/><path id="_161207656" class="fil1 str0" d="m354.8275 264.9346c-2.19414-8.82127 38.90479-2.29208 42.39557-9.55097 1.73588-3.89489 1.88562-8.90796 0.30582-10.07829-4.06588 9.0178-40.41002 2.69002-43.76495 10.20116-0.63367 1.83256-0.37012 6.46074 1.06356 9.4281z" style="clip-rule:evenodd;fill-rule:evenodd;fill:#fcdd09;image-rendering:optimizeQuality;shape-rendering:geometricPrecision"/><path id="_161206952" class="fil1 str0" d="m385.7805 263.2921c-3.62784 0.58858-12.30179-0.0721-12.68671 0.27017 0.36167 0.65507 3.15176 2.88002 5.91075 12.3857 2.96578 25.12696 4.4037 36.72071 3.45364 49.61417-1.30296 17.68198-9.88092 22.34504-19.60908 18.41722-14.5856-14.52624-11.81966-48.38257 2.64819-79.93768-2.53891-0.2239-7.05973 0.97999-7.35982 0.87472-6.27451 7.8175-30.15143 59.5344-5.06211 86.9792 15.12689 11.34476 33.58244 4.91563 39.37211-13.22653 5.97958-24.54946-3.13997-65.85989-6.66697-75.37697z" style="clip-rule:evenodd;fill-rule:evenodd;fill:#fcdd09;image-rendering:optimizeQuality;shape-rendering:geometricPrecision"/><path id="_161206360" class="fil1 str0" d="m352.6449 355.0833c11.38011 22.94535 45.22791 19.05306 55.79141-9.15077 8.29478-26.36442 0.128-64.06577-9.09269-87.6675 0.22552 1.04745-6.38621 3.22254-9.9754 3.54324 6.90728 31.56195 9.96998 54.52165 8.03183 70.88111-4.81216 27.75669-29.70253 33.93096-44.75515 22.39392z" style="clip-rule:evenodd;fill-rule:evenodd;fill:#fcdd09;image-rendering:optimizeQuality;shape-rendering:geometricPrecision"/><path id="_161167928" class="fil1 str0" d="m375.5796 340.1633c-13.95494-10.75161-17.16224-37.26693-1.87323-66.95786-0.39548-2.71609-1.27881-7.20023-4.26513-9.4053-8.59697 16.86169-12.27583 33.91174-13.75087 45.96697-0.46279 17.70317 5.99678 40.01854 19.88923 30.39619z" style="clip-rule:evenodd;fill-rule:evenodd;fill:#fcdd09;image-rendering:optimizeQuality;shape-rendering:geometricPrecision"/><path id="_161167360" class="fil1 str0" d="m364.2194 236.708c3.62753-0.58858 12.30148 0.0717 12.68639-0.27017-0.36136-0.65508-3.15174-2.88036-5.91073-12.38571-2.96578-25.12696-4.4037-36.72103-3.45335-49.61416 1.30297-17.68231 9.88063-22.34504 19.60879-18.41722 14.58559 14.52624 11.81996 48.38256-2.6479 79.93768 2.53861 0.2239 7.05944-0.97999 7.35982-0.87473 6.27452-7.81749 30.15113-59.53439 5.06182-86.97919-15.12689-11.34476-33.58214-4.91595-39.37212 13.22621-5.97957 24.54977 3.14028 65.86021 6.66728 75.37729z" style="clip-rule:evenodd;fill-rule:evenodd;fill:#fcdd09;image-rendering:optimizeQuality;shape-rendering:geometricPrecision"/><path id="_161166800" class="fil1 str0" d="m397.355 144.9168c-11.38012-22.94535-45.22792-19.05339-55.79111 9.15077-8.29508 26.3641-0.128 64.06578 9.09238 87.66751-0.22522-1.04746 6.38652-3.22255 9.97571-3.54324-6.90759-31.56196-9.97028-54.52198-8.03213-70.88111 4.81215-27.75669 29.70282-33.93097 44.75515-22.39393z" style="clip-rule:evenodd;fill-rule:evenodd;fill:#fcdd09;image-rendering:optimizeQuality;shape-rendering:geometricPrecision"/><path id="_160353840" class="fil1 str0" d="m374.4233 159.8368c13.95495 10.75193 17.16224 37.26692 1.87324 66.95819 0.39547 2.71609 1.27881 7.1999 4.26543 9.40497 8.59697-16.86136 12.27552-33.91174 13.75056-45.96664 0.46281-17.7035-5.99677-40.01888-19.88923-30.39652z" style="clip-rule:evenodd;fill-rule:evenodd;fill:#fcdd09;image-rendering:optimizeQuality;shape-rendering:geometricPrecision"/></g><g id="g1306"><path id="path2931" d="m428.198 302.6998v-2.87596h3.3801c3.79983 0 6.49505-1.42501 8.08569-4.27506 0.97204-1.71001 1.45806-5.5446 1.45808-11.50379v-68.09005c-2e-5 -6.58091-0.61858-10.70052-1.85573-12.35881-1.7232-2.27994-4.28588-3.41995-7.68804-3.42006h-3.3801v-2.87594h36.58448c13.43193 1.1e-4 23.64951 1.78786 30.65274 5.36326 7.00312 3.5756 12.63661 9.53477 16.90044 17.87752 4.26369 8.34292 6.39557 17.98122 6.39566 28.91496-9e-5 14.66479-3.79992 26.91994-11.3995 36.7655-8.52762 10.98564-21.51774 16.47843-38.97043 16.47843zm25.6489-7.61738c5.61135 1.45094 10.31697 2.17639 14.11684 2.17639 10.25067 0 18.75611-4.22323 25.51634-12.66972 6.76009-8.44645 10.1402-19.89843 10.14027-34.35595-7e-5 -14.56104-3.38018-26.03891-10.14027-34.43365-6.76023-8.39458-15.4424-12.5919-26.04654-12.592-3.97662 1e-4 -8.50549 0.75146-13.58664 2.25412z" style="clip-rule:evenodd;color:#000000;fill-rule:nonzero;fill:#fcdd09;image-rendering:optimizeQuality;shape-rendering:geometricPrecision;text-decoration-line:none;text-indent:0;text-transform:none"/><path id="path2933" d="m573.608 194.8905c11.66455 1.1e-4 21.77168 5.19495 30.32136 15.58455 8.54956 10.38978 12.82437 23.35744 12.82446 38.90304-9e-5 16.01208-4.30804 29.30363-12.92386 39.87466-8.61599 10.57105-19.04343 15.85658-31.28238 15.85658-12.37159 0-22.76589-5.15598-31.18295-15.46794-8.4171-10.31195-12.62563-23.6553-12.62561-40.03011-2e-5 -16.73743 4.86023-30.39171 14.58075-40.96285 8.43914-9.17183 18.53522-13.75782 30.28823-13.75793zm-1.25925 5.67419c-8.04155 1e-4 -14.49244 3.49786-19.35265 10.49331-6.05324 8.70567-9.07987 21.45312-9.07985 38.24236-2e-5 17.20391 3.13706 30.44364 9.41123 39.7192 4.81604 7.04738 11.17855 10.57105 19.08756 10.57105 8.4391 0 15.40916-3.86048 20.91014-11.58153 5.50085-7.72098 8.25132-19.89842 8.2514-36.53232-8e-5 -18.03291-3.0267-31.4799-9.07985-40.34101-4.86033-7.04729-11.57631-10.57096-20.14798-10.57106z" style="clip-rule:evenodd;color:#000000;fill-rule:nonzero;fill:#fcdd09;image-rendering:optimizeQuality;shape-rendering:geometricPrecision;text-decoration-line:none;text-indent:0;text-transform:none"/></g><g id="g1302"><path id="path2936" d="m133.2462 197.3001h24.38965l54.943 79.04975v-60.78358c-8e-5 -6.47726-0.61866-10.51914-1.85575-12.12564-1.63488-2.17627-4.21965-3.26448-7.75432-3.26459h-3.11497v-2.87594h31.28237v2.87594h-3.18127c-3.79991 1.1e-4 -6.49514 1.3474-8.08568 4.04189-0.97214 1.65829-1.45816 5.44108-1.45808 11.34834v88.84351h-2.38595l-59.25094-84.87938v64.9032c-2e-5 6.47737 0.59646 10.51925 1.78946 12.12563 1.67897 2.17639 4.26374 3.26458 7.75432 3.26458h3.18126v2.87596h-31.28238v-2.87596h3.11498c3.84401 0 6.56134-1.34729 8.15198-4.04187 0.97203-1.6582 1.45805-5.44097 1.45807-11.34834v-73.29784c-2.60687-3.57542-4.58411-5.93319-5.93172-7.07329-1.34762-1.13992-3.32486-2.2022-5.93172-3.18686-1.28134-0.46627-3.22545-0.69946-5.83231-0.69957z" style="clip-rule:evenodd;fill-rule:evenodd;fill:#fcdd09;image-rendering:optimizeQuality;shape-rendering:geometricPrecision"/><path id="path2938" d="m282.7653 194.8905c11.66455 1.1e-4 21.77166 5.19495 30.32136 15.58455 8.54956 10.38978 12.82435 23.35744 12.82446 38.90304-1.1e-4 16.01208-4.30806 29.30363-12.92388 39.87466-8.61597 10.57105-19.04341 15.85658-31.28236 15.85658-12.37161 0-22.76592-5.15598-31.18297-15.46794-8.41708-10.31195-12.62561-23.6553-12.62561-40.03011 0-16.73743 4.86023-30.39171 14.58076-40.96285 8.43915-9.17183 18.53521-13.75782 30.28824-13.75793zm-1.25926 5.67419c-8.04155 1e-4 -14.49243 3.49786-19.35266 10.49331-6.05324 8.70567-9.07985 21.45312-9.07984 38.24236-1e-5 17.20391 3.13706 30.44364 9.41123 39.7192 4.81604 7.04738 11.17856 10.57105 19.08755 10.57105 8.43912 0 15.40916-3.86048 20.91016-11.58153 5.50085-7.72098 8.2513-19.89842 8.25138-36.53232-8e-5 -18.03291-3.02669-31.4799-9.07984-40.34101-4.86032-7.04729-11.57631-10.57096-20.14798-10.57106z" style="clip-rule:evenodd;fill-rule:evenodd;fill:#fcdd09;image-rendering:optimizeQuality;shape-rendering:geometricPrecision"/></g></g></svg>
